<svg xmlns="http://www.w3.org/2000/svg" viewBox="0 0 1520 328.86"><defs><style>.a{fill:#0ba5ff;}.b{isolation:isolate;}.c{fill:#acacac;}.d{fill:#747474;}</style></defs><title>graph</title><polygon class="a" points="1274.5 297.78 1274.5 127 1182.5 127 1182.5 297.78 1075.5 297.78 1075.5 0 983.5 0 983.5 297.78 876.5 297.78 876.5 211 784.5 211 784.5 297.78 677.5 297.78 677.5 33 585.5 33 585.5 297.78 279.5 297.78 279.5 82 187.5 82 187.5 297.78 0 297.78 0 301.78 1520 301.78 1520 297.78 1274.5 297.78"/><g class="b"><path class="c" d="M1196.2,328.64h2.92v-9.4h-2.32v-1.06a7.6,7.6,0,0,0,2.7-.94h1.26v11.4h2.64V330h-7.2v-1.36Z" transform="translate(14 -1.38)"/><path class="c" d="M1206.5,327.86a2.8,2.8,0,0,0,2.1,1c1.8,0,3.32-1.4,3.38-5.48a4,4,0,0,1-3,1.64c-2.2,0-3.62-1.32-3.62-3.94a3.86,3.86,0,0,1,3.76-4.1c2.52,0,4.4,2,4.4,6.14,0,5.12-2.32,7.1-4.86,7.1a4.08,4.08,0,0,1-3.08-1.34Zm5.44-5.76c-0.22-2.48-1.2-3.8-2.82-3.8-1.24,0-2.22,1.12-2.22,2.8s0.78,2.7,2.36,2.7A3.44,3.44,0,0,0,1211.94,322.1Z" transform="translate(14 -1.38)"/><path class="c" d="M1216.44,327.86a2.8,2.8,0,0,0,2.1,1c1.8,0,3.32-1.4,3.38-5.48a4,4,0,0,1-3,1.64c-2.2,0-3.62-1.32-3.62-3.94a3.86,3.86,0,0,1,3.76-4.1c2.52,0,4.4,2,4.4,6.14,0,5.12-2.32,7.1-4.86,7.1a4.08,4.08,0,0,1-3.08-1.34Zm5.44-5.76c-0.22-2.48-1.2-3.8-2.82-3.8-1.24,0-2.22,1.12-2.22,2.8s0.78,2.7,2.36,2.7A3.44,3.44,0,0,0,1221.88,322.1Z" transform="translate(14 -1.38)"/><path class="c" d="M1232.42,319.38a2.78,2.78,0,0,0-2.1-1c-1.78,0-3.28,1.38-3.36,5.42a4.07,4.07,0,0,1,3-1.6c2.2,0,3.64,1.32,3.64,3.94a3.86,3.86,0,0,1-3.78,4.1c-2.5,0-4.4-2-4.4-6.14,0-5.12,2.32-7.1,4.86-7.1a4,4,0,0,1,3.08,1.36Zm-0.4,6.76c0-1.66-.78-2.7-2.36-2.7a3.47,3.47,0,0,0-2.66,1.68c0.2,2.48,1.18,3.82,2.8,3.82C1231.06,328.94,1232,327.82,1232,326.14Z" transform="translate(14 -1.38)"/></g><g class="b"><path class="c" d="M997.2,328.64h2.92v-9.4H997.8v-1.06a7.6,7.6,0,0,0,2.7-.94h1.26v11.4h2.64V330h-7.2v-1.36Z" transform="translate(14 -1.38)"/><path class="c" d="M1007.5,327.86a2.8,2.8,0,0,0,2.1,1c1.8,0,3.32-1.4,3.38-5.48a4,4,0,0,1-3,1.64c-2.2,0-3.62-1.32-3.62-3.94a3.86,3.86,0,0,1,3.76-4.1c2.52,0,4.4,2,4.4,6.14,0,5.12-2.32,7.1-4.86,7.1a4.08,4.08,0,0,1-3.08-1.34Zm5.44-5.76c-0.22-2.48-1.2-3.8-2.82-3.8-1.24,0-2.22,1.12-2.22,2.8s0.78,2.7,2.36,2.7A3.44,3.44,0,0,0,1012.94,322.1Z" transform="translate(14 -1.38)"/><path class="c" d="M1017.44,327.86a2.8,2.8,0,0,0,2.1,1c1.8,0,3.32-1.4,3.38-5.48a4,4,0,0,1-3,1.64c-2.2,0-3.62-1.32-3.62-3.94a3.86,3.86,0,0,1,3.76-4.1c2.52,0,4.4,2,4.4,6.14,0,5.12-2.32,7.1-4.86,7.1a4.08,4.08,0,0,1-3.08-1.34Zm5.44-5.76c-0.22-2.48-1.2-3.8-2.82-3.8-1.24,0-2.22,1.12-2.22,2.8s0.78,2.7,2.36,2.7A3.44,3.44,0,0,0,1022.88,322.1Z" transform="translate(14 -1.38)"/><path class="c" d="M1026.74,327.42a4.34,4.34,0,0,0,3.22,1.46,2.75,2.75,0,0,0,2.8-2.92,2.56,2.56,0,0,0-2.72-2.8,3.59,3.59,0,0,0-2.18.78l-0.88-.56,0.42-6.14h6.38v1.42h-4.94l-0.34,3.78a3.92,3.92,0,0,1,2-.52,3.67,3.67,0,0,1,4,4,4.17,4.17,0,0,1-4.3,4.32,5.6,5.6,0,0,1-4.18-1.74Z" transform="translate(14 -1.38)"/></g><g class="b"><path class="c" d="M798.2,328.64h2.92v-9.4H798.8v-1.06a7.6,7.6,0,0,0,2.7-.94h1.26v11.4h2.64V330h-7.2v-1.36Z" transform="translate(14 -1.38)"/><path class="c" d="M808.5,327.86a2.8,2.8,0,0,0,2.1,1c1.8,0,3.32-1.4,3.38-5.48a4,4,0,0,1-3,1.64c-2.2,0-3.62-1.32-3.62-3.94a3.86,3.86,0,0,1,3.76-4.1c2.52,0,4.4,2,4.4,6.14,0,5.12-2.32,7.1-4.86,7.1a4.08,4.08,0,0,1-3.08-1.34Zm5.44-5.76c-0.22-2.48-1.2-3.8-2.82-3.8-1.24,0-2.22,1.12-2.22,2.8s0.78,2.7,2.36,2.7A3.44,3.44,0,0,0,813.94,322.1Z" transform="translate(14 -1.38)"/><path class="c" d="M818.44,327.86a2.8,2.8,0,0,0,2.1,1c1.8,0,3.32-1.4,3.38-5.48a4,4,0,0,1-3,1.64c-2.2,0-3.62-1.32-3.62-3.94a3.86,3.86,0,0,1,3.76-4.1c2.52,0,4.4,2,4.4,6.14,0,5.12-2.32,7.1-4.86,7.1a4.08,4.08,0,0,1-3.08-1.34Zm5.44-5.76c-0.22-2.48-1.2-3.8-2.82-3.8-1.24,0-2.22,1.12-2.22,2.8s0.78,2.7,2.36,2.7A3.44,3.44,0,0,0,823.88,322.1Z" transform="translate(14 -1.38)"/><path class="c" d="M835.82,326.48h-1.74V330h-1.56v-3.52h-5.74V325.4l5.46-8.16h1.84v7.92h1.74v1.32Zm-3.3-1.32v-3.7c0-.68.06-1.78,0.1-2.46h-0.08c-0.32.62-.68,1.18-1,1.8l-3,4.36h4Z" transform="translate(14 -1.38)"/></g><g class="b"><path class="c" d="M599.2,328.64h2.92v-9.4H599.8v-1.06a7.6,7.6,0,0,0,2.7-.94h1.26v11.4h2.64V330h-7.2v-1.36Z" transform="translate(14 -1.38)"/><path class="c" d="M609.5,327.86a2.8,2.8,0,0,0,2.1,1c1.8,0,3.32-1.4,3.38-5.48a4,4,0,0,1-3,1.64c-2.2,0-3.62-1.32-3.62-3.94a3.86,3.86,0,0,1,3.76-4.1c2.52,0,4.4,2,4.4,6.14,0,5.12-2.32,7.1-4.86,7.1a4.08,4.08,0,0,1-3.08-1.34Zm5.44-5.76c-0.22-2.48-1.2-3.8-2.82-3.8-1.24,0-2.22,1.12-2.22,2.8s0.78,2.7,2.36,2.7A3.44,3.44,0,0,0,614.94,322.1Z" transform="translate(14 -1.38)"/><path class="c" d="M619.44,327.86a2.8,2.8,0,0,0,2.1,1c1.8,0,3.32-1.4,3.38-5.48a4,4,0,0,1-3,1.64c-2.2,0-3.62-1.32-3.62-3.94a3.86,3.86,0,0,1,3.76-4.1c2.52,0,4.4,2,4.4,6.14,0,5.12-2.32,7.1-4.86,7.1a4.08,4.08,0,0,1-3.08-1.34Zm5.44-5.76c-0.22-2.48-1.2-3.8-2.82-3.8-1.24,0-2.22,1.12-2.22,2.8s0.78,2.7,2.36,2.7A3.44,3.44,0,0,0,624.88,322.1Z" transform="translate(14 -1.38)"/><path class="c" d="M628.8,327.36a4.33,4.33,0,0,0,3.26,1.52,2.38,2.38,0,0,0,2.64-2.34c0-1.52-1-2.54-4.08-2.54v-1.26c2.72,0,3.62-1,3.62-2.38a2,2,0,0,0-2.2-2,3.87,3.87,0,0,0-2.72,1.3l-0.88-1a5.26,5.26,0,0,1,3.66-1.6c2.22,0,3.82,1.18,3.82,3.24a3.16,3.16,0,0,1-2.32,3v0.08a3.29,3.29,0,0,1,2.76,3.24c0,2.26-1.86,3.64-4.2,3.64a5.42,5.42,0,0,1-4.2-1.8Z" transform="translate(14 -1.38)"/></g><g class="b"><path class="c" d="M201.2,328.64h2.92v-9.4H201.8v-1.06a7.6,7.6,0,0,0,2.7-.94h1.26v11.4h2.64V330h-7.2v-1.36Z" transform="translate(14 -1.38)"/><path class="c" d="M211.5,327.86a2.8,2.8,0,0,0,2.1,1c1.8,0,3.32-1.4,3.38-5.48a4,4,0,0,1-3,1.64c-2.2,0-3.62-1.32-3.62-3.94a3.86,3.86,0,0,1,3.76-4.1c2.52,0,4.4,2,4.4,6.14,0,5.12-2.32,7.1-4.86,7.1a4.08,4.08,0,0,1-3.08-1.34Zm5.44-5.76c-0.22-2.48-1.2-3.8-2.82-3.8-1.24,0-2.22,1.12-2.22,2.8s0.78,2.7,2.36,2.7A3.44,3.44,0,0,0,216.94,322.1Z" transform="translate(14 -1.38)"/><path class="c" d="M221.44,327.86a2.8,2.8,0,0,0,2.1,1c1.8,0,3.32-1.4,3.38-5.48a4,4,0,0,1-3,1.64c-2.2,0-3.62-1.32-3.62-3.94a3.86,3.86,0,0,1,3.76-4.1c2.52,0,4.4,2,4.4,6.14,0,5.12-2.32,7.1-4.86,7.1a4.08,4.08,0,0,1-3.08-1.34Zm5.44-5.76c-0.22-2.48-1.2-3.8-2.82-3.8-1.24,0-2.22,1.12-2.22,2.8s0.78,2.7,2.36,2.7A3.44,3.44,0,0,0,226.88,322.1Z" transform="translate(14 -1.38)"/><path class="c" d="M231,328.64h2.92v-9.4h-2.32v-1.06a7.6,7.6,0,0,0,2.7-.94h1.26v11.4h2.64V330H231v-1.36Z" transform="translate(14 -1.38)"/></g><g class="b"><path class="c" d="M395.2,328.64h2.92v-9.4H395.8v-1.06a7.6,7.6,0,0,0,2.7-.94h1.26v11.4h2.64V330h-7.2v-1.36Z" transform="translate(14 -1.38)"/><path class="c" d="M405.5,327.86a2.8,2.8,0,0,0,2.1,1c1.8,0,3.32-1.4,3.38-5.48a4,4,0,0,1-3,1.64c-2.2,0-3.62-1.32-3.62-3.94a3.86,3.86,0,0,1,3.76-4.1c2.52,0,4.4,2,4.4,6.14,0,5.12-2.32,7.1-4.86,7.1a4.08,4.08,0,0,1-3.08-1.34Zm5.44-5.76c-0.22-2.48-1.2-3.8-2.82-3.8-1.24,0-2.22,1.12-2.22,2.8s0.78,2.7,2.36,2.7A3.44,3.44,0,0,0,410.94,322.1Z" transform="translate(14 -1.38)"/><path class="c" d="M415.44,327.86a2.8,2.8,0,0,0,2.1,1c1.8,0,3.32-1.4,3.38-5.48a4,4,0,0,1-3,1.64c-2.2,0-3.62-1.32-3.62-3.94a3.86,3.86,0,0,1,3.76-4.1c2.52,0,4.4,2,4.4,6.14,0,5.12-2.32,7.1-4.86,7.1a4.08,4.08,0,0,1-3.08-1.34Zm5.44-5.76c-0.22-2.48-1.2-3.8-2.82-3.8-1.24,0-2.22,1.12-2.22,2.8s0.78,2.7,2.36,2.7A3.44,3.44,0,0,0,420.88,322.1Z" transform="translate(14 -1.38)"/><path class="c" d="M424.24,329c3.84-3.82,6-6.12,6-8.18a2.26,2.26,0,0,0-2.42-2.5,3.76,3.76,0,0,0-2.72,1.54l-0.94-.94A5,5,0,0,1,428,317a3.54,3.54,0,0,1,3.82,3.76c0,2.4-2.18,4.78-5.2,7.94,0.7-.06,1.48-0.12,2.14-0.12h3.7V330h-8.24v-1Z" transform="translate(14 -1.38)"/></g><g class="b"><path class="d" d="M66.47,260.27v4.06L70,265.73v0.77l-10-4V262l10-3.94v0.79Zm-0.63,3.81V260.5l-3.6,1.36q-0.42.17-1.18,0.41a10.93,10.93,0,0,1,1.19.4Z" transform="translate(14 -1.38)"/><path class="d" d="M62.43,253.93a5.85,5.85,0,0,1,.1-1L63.17,253a4,4,0,0,0-.12,1,1.87,1.87,0,0,0,.81,1.56,3.29,3.29,0,0,0,2,.61H70v0.68H62.57v-0.57l1.34-.07v0a3.15,3.15,0,0,1-1.15-1A2.28,2.28,0,0,1,62.43,253.93Z" transform="translate(14 -1.38)"/><path class="d" d="M69.54,249.44a5.06,5.06,0,0,0-.11-1.12H70a3.59,3.59,0,0,1,.16,1.13,1.85,1.85,0,0,1-.53,1.45,2.44,2.44,0,0,1-1.65.47h-4.8v1.1h-0.4l-0.31-1.1L60.77,251v-0.35h1.8v-2.18h0.59v2.18h4.7a2.15,2.15,0,0,0,1.26-.3A1.09,1.09,0,0,0,69.54,249.44Z" transform="translate(14 -1.38)"/><path class="d" d="M60.5,246.81q-0.66,0-.66-0.43a0.38,0.38,0,0,1,.17-0.33,0.84,0.84,0,0,1,.49-0.12,0.86,0.86,0,0,1,.49.12,0.38,0.38,0,0,1,.18.33Q61.17,246.81,60.5,246.81ZM70,246v0.68H62.57V246H70Z" transform="translate(14 -1.38)"/><path class="d" d="M70.14,240.58a3.18,3.18,0,0,1-1,2.5,4,4,0,0,1-2.8.9,4.11,4.11,0,0,1-2.87-.94,3.29,3.29,0,0,1-1-2.56,5.15,5.15,0,0,1,.33-1.85l0.6,0.18A5.43,5.43,0,0,0,63,240.5a2.54,2.54,0,0,0,.84,2.07,3.7,3.7,0,0,0,2.43.7,3.59,3.59,0,0,0,2.35-.7,2.41,2.41,0,0,0,.85-2,4.84,4.84,0,0,0-.36-1.88h0.63A4.26,4.26,0,0,1,70.14,240.58Z" transform="translate(14 -1.38)"/><path class="d" d="M70,236.22v0.68H59.36v-0.68H70Z" transform="translate(14 -1.38)"/><path class="d" d="M70.14,230.73a3.24,3.24,0,0,1-1,2.53,4,4,0,0,1-2.8.91,4.36,4.36,0,0,1-2.85-.87,2.89,2.89,0,0,1-1.07-2.36,2.55,2.55,0,0,1,.92-2.07,3.78,3.78,0,0,1,2.49-.76h0.55v5.35a3.52,3.52,0,0,0,2.34-.71,2.51,2.51,0,0,0,.81-2,6.19,6.19,0,0,0-.09-1.12A6.79,6.79,0,0,0,69,228.4h0.62a5.39,5.39,0,0,1,.37,1.16A6.42,6.42,0,0,1,70.14,230.73Zm-7.11.2a2.23,2.23,0,0,0,.71,1.72,3.34,3.34,0,0,0,2,.76v-4.59a3.24,3.24,0,0,0-2,.56A1.85,1.85,0,0,0,63,230.93Z" transform="translate(14 -1.38)"/><path class="d" d="M68.07,221.44a1.77,1.77,0,0,1,1.53.76,3.69,3.69,0,0,1,.54,2.15,5.13,5.13,0,0,1-.46,2.37H68.95a5.22,5.22,0,0,0,.56-2.37,3.13,3.13,0,0,0-.37-1.67,1.11,1.11,0,0,0-1-.57,1.19,1.19,0,0,0-.94.45,5,5,0,0,0-.75,1.49,8.57,8.57,0,0,1-.69,1.57,2.18,2.18,0,0,1-.66.68,1.65,1.65,0,0,1-.89.23,1.52,1.52,0,0,1-1.32-.7,3.41,3.41,0,0,1-.49-2,5.86,5.86,0,0,1,.45-2.28l0.62,0.25a5.35,5.35,0,0,0-.45,2,2.94,2.94,0,0,0,.3,1.44,0.92,0.92,0,0,0,.83.53,1.15,1.15,0,0,0,.93-0.41,5.77,5.77,0,0,0,.78-1.62,8,8,0,0,1,.65-1.46,2.14,2.14,0,0,1,.66-0.69A1.61,1.61,0,0,1,68.07,221.44Z" transform="translate(14 -1.38)"/><path class="d" d="M70,206.61H65.13a2.43,2.43,0,0,0-1.59.42,1.61,1.61,0,0,0-.5,1.3,2.12,2.12,0,0,0,.63,1.69,3,3,0,0,0,2,.55H70v0.69H64.92A1.6,1.6,0,0,0,63,213a2,2,0,0,0,.68,1.7,3.55,3.55,0,0,0,2.18.53H70v0.68H62.57v-0.56l1-.14v0a2.12,2.12,0,0,1-.86-0.87,2.6,2.6,0,0,1-.3-1.25,2.14,2.14,0,0,1,1.32-2.26v0a2.53,2.53,0,0,1-1-1,2.81,2.81,0,0,1-.34-1.39,2.39,2.39,0,0,1,.65-1.83,3,3,0,0,1,2.06-.61H70v0.67Z" transform="translate(14 -1.38)"/><path class="d" d="M70.14,200.53a3.24,3.24,0,0,1-1,2.53,4,4,0,0,1-2.8.91,4.36,4.36,0,0,1-2.85-.87,2.89,2.89,0,0,1-1.07-2.36,2.55,2.55,0,0,1,.92-2.07,3.78,3.78,0,0,1,2.49-.76h0.55v5.35a3.52,3.52,0,0,0,2.34-.71,2.51,2.51,0,0,0,.81-2,6.19,6.19,0,0,0-.09-1.12A6.79,6.79,0,0,0,69,198.2h0.62a5.39,5.39,0,0,1,.37,1.16A6.42,6.42,0,0,1,70.14,200.53Zm-7.11.2a2.23,2.23,0,0,0,.71,1.72,3.34,3.34,0,0,0,2,.76v-4.59a3.24,3.24,0,0,0-2,.56A1.85,1.85,0,0,0,63,200.73Z" transform="translate(14 -1.38)"/><path class="d" d="M70,190.67H65.18a2.35,2.35,0,0,0-1.63.47A1.9,1.9,0,0,0,63,192.6a2.53,2.53,0,0,0,.67,2,3.17,3.17,0,0,0,2.18.62H70v0.68H62.57v-0.57l1-.13v0a2.79,2.79,0,0,1-1.16-2.58q0-2.53,2.71-2.53H70v0.67Z" transform="translate(14 -1.38)"/><path class="d" d="M69.54,185.63a5.06,5.06,0,0,0-.11-1.12H70a3.59,3.59,0,0,1,.16,1.13,1.85,1.85,0,0,1-.53,1.45,2.44,2.44,0,0,1-1.65.47h-4.8v1.1h-0.4l-0.31-1.1-1.68-.34v-0.35h1.8v-2.18h0.59v2.18h4.7a2.15,2.15,0,0,0,1.26-.3A1.09,1.09,0,0,0,69.54,185.63Z" transform="translate(14 -1.38)"/><path class="d" d="M60.5,183q-0.66,0-.66-0.43a0.38,0.38,0,0,1,.17-0.33,0.84,0.84,0,0,1,.49-0.12,0.86,0.86,0,0,1,.49.12,0.38,0.38,0,0,1,.18.33Q61.17,183,60.5,183Zm9.5-.77v0.68H62.57v-0.68H70Z" transform="translate(14 -1.38)"/><path class="d" d="M66.27,173.59a4.21,4.21,0,0,1,2.84.88,3,3,0,0,1,1,2.43,3.15,3.15,0,0,1-.47,1.72,3,3,0,0,1-1.35,1.14,4.93,4.93,0,0,1-2,.4,4.18,4.18,0,0,1-2.83-.88,3,3,0,0,1-1-2.42,3,3,0,0,1,1-2.4A4.22,4.22,0,0,1,66.27,173.59Zm0,5.87a3.79,3.79,0,0,0,2.39-.67,2.54,2.54,0,0,0,0-3.81,3.79,3.79,0,0,0-2.39-.67,3.72,3.72,0,0,0-2.39.68,2.31,2.31,0,0,0-.85,1.91,2.28,2.28,0,0,0,.84,1.9A3.78,3.78,0,0,0,66.27,179.46Z" transform="translate(14 -1.38)"/><path class="d" d="M70,166.35H65.18a2.35,2.35,0,0,0-1.63.47,1.9,1.9,0,0,0-.51,1.46,2.53,2.53,0,0,0,.67,2,3.17,3.17,0,0,0,2.18.62H70v0.68H62.57V171l1-.13v0a2.79,2.79,0,0,1-1.16-2.58q0-2.53,2.71-2.53H70v0.67Z" transform="translate(14 -1.38)"/><path class="d" d="M60.5,163.37q-0.66,0-.66-0.43a0.38,0.38,0,0,1,.17-0.33,0.84,0.84,0,0,1,.49-0.12,0.86,0.86,0,0,1,.49.12,0.38,0.38,0,0,1,.18.33Q61.17,163.37,60.5,163.37Zm9.5-.77v0.68H62.57V162.6H70Z" transform="translate(14 -1.38)"/><path class="d" d="M70,154.93H65.18a2.35,2.35,0,0,0-1.63.47,1.9,1.9,0,0,0-.51,1.46,2.53,2.53,0,0,0,.67,2,3.17,3.17,0,0,0,2.18.62H70v0.68H62.57v-0.57l1-.13v0a2.79,2.79,0,0,1-1.16-2.58q0-2.53,2.71-2.53H70v0.67Z" transform="translate(14 -1.38)"/><path class="d" d="M62.57,146.06H63l0.1,1.54a2.63,2.63,0,0,1,1.68-.62,2.27,2.27,0,0,1,1.74.71,2.7,2.7,0,0,1,.67,1.92,4.17,4.17,0,0,1,0,.71,1.77,1.77,0,0,0,.5.62,1,1,0,0,0,.61.21,0.56,0.56,0,0,0,.52-0.27A1.84,1.84,0,0,0,69,150v-1.3a3,3,0,0,1,.49-1.85,1.71,1.71,0,0,1,1.45-.64,2.06,2.06,0,0,1,1.82,1,4.87,4.87,0,0,1,.64,2.72,3.74,3.74,0,0,1-.54,2.17,1.74,1.74,0,0,1-1.5.77,1.78,1.78,0,0,1-1.27-.48,2.46,2.46,0,0,1-.69-1.29,1.31,1.31,0,0,1-.41.54,1,1,0,0,1-.61.2,1.59,1.59,0,0,1-1.31-1,2.12,2.12,0,0,1-.84,1,2.39,2.39,0,0,1-1.31.36,2.35,2.35,0,0,1-1.79-.71,2.66,2.66,0,0,1-.67-1.91,3.52,3.52,0,0,1,.14-1.13v-2.38Zm2.32,5.45a1.71,1.71,0,0,0,1.34-.52,2.34,2.34,0,0,0,0-2.82,1.8,1.8,0,0,0-1.37-.5,1.86,1.86,0,0,0-1.43.51A2,2,0,0,0,63,149.6a1.89,1.89,0,0,0,.51,1.4A1.92,1.92,0,0,0,64.89,151.51Zm6.37,0.57q1.53,0,1.53-2.28,0-2.93-1.87-2.93a1.08,1.08,0,0,0-1,.46,2.79,2.79,0,0,0-.3,1.48V150Q69.65,152.07,71.26,152.07Z" transform="translate(14 -1.38)"/><path class="d" d="M62.43,138.18a3.08,3.08,0,0,1,.29-1.39,2.78,2.78,0,0,1,1-1.05v0q-0.86,0-1.69,0H59.36v-0.67H70v0.44l-1.13.17v0.05a2.75,2.75,0,0,1,1.27,2.43,2.92,2.92,0,0,1-1,2.35,4.2,4.2,0,0,1-2.79.81,4.66,4.66,0,0,1-2.95-.81A2.81,2.81,0,0,1,62.43,138.18Zm0.62,0A2.1,2.1,0,0,0,63.9,140a4.23,4.23,0,0,0,2.48.61q3.16,0,3.16-2.45a2.23,2.23,0,0,0-.73-1.85,3.88,3.88,0,0,0-2.41-.59H66.27a4.13,4.13,0,0,0-2.48.58A2.2,2.2,0,0,0,63,138.18Z" transform="translate(14 -1.38)"/><path class="d" d="M70.14,129.56a3.24,3.24,0,0,1-1,2.53,4,4,0,0,1-2.8.91,4.36,4.36,0,0,1-2.85-.87,2.89,2.89,0,0,1-1.07-2.36,2.55,2.55,0,0,1,.92-2.07,3.78,3.78,0,0,1,2.49-.76h0.55v5.35a3.52,3.52,0,0,0,2.34-.71,2.51,2.51,0,0,0,.81-2,6.19,6.19,0,0,0-.09-1.12,6.79,6.79,0,0,0-.38-1.22h0.62a5.39,5.39,0,0,1,.37,1.16A6.42,6.42,0,0,1,70.14,129.56Zm-7.11.2a2.23,2.23,0,0,0,.71,1.72,3.34,3.34,0,0,0,2,.76v-4.59a3.24,3.24,0,0,0-2,.56A1.85,1.85,0,0,0,63,129.76Z" transform="translate(14 -1.38)"/><path class="d" d="M70,119.7H65.18a2.35,2.35,0,0,0-1.63.47,1.9,1.9,0,0,0-.51,1.46,2.53,2.53,0,0,0,.67,2,3.17,3.17,0,0,0,2.18.62H70v0.68H62.57v-0.57l1-.13v0a2.79,2.79,0,0,1-1.16-2.58q0-2.53,2.71-2.53H70v0.67Z" transform="translate(14 -1.38)"/><path class="d" d="M62.57,110.83H63l0.1,1.54a2.63,2.63,0,0,1,1.68-.62,2.27,2.27,0,0,1,1.74.71,2.7,2.7,0,0,1,.67,1.92,4.17,4.17,0,0,1,0,.71,1.77,1.77,0,0,0,.5.62,1,1,0,0,0,.61.21,0.56,0.56,0,0,0,.52-0.27,1.84,1.84,0,0,0,.16-0.91v-1.3a3,3,0,0,1,.49-1.85,1.71,1.71,0,0,1,1.45-.64,2.06,2.06,0,0,1,1.82,1,4.87,4.87,0,0,1,.64,2.72,3.74,3.74,0,0,1-.54,2.17,1.74,1.74,0,0,1-1.5.77,1.78,1.78,0,0,1-1.27-.48,2.46,2.46,0,0,1-.69-1.29,1.31,1.31,0,0,1-.41.54,1,1,0,0,1-.61.2,1.59,1.59,0,0,1-1.31-1,2.12,2.12,0,0,1-.84,1,2.39,2.39,0,0,1-1.31.36,2.35,2.35,0,0,1-1.79-.71,2.66,2.66,0,0,1-.67-1.91,3.52,3.52,0,0,1,.14-1.13v-2.38Zm2.32,5.45a1.71,1.71,0,0,0,1.34-.52,2.34,2.34,0,0,0,0-2.82,1.8,1.8,0,0,0-1.37-.5,1.86,1.86,0,0,0-1.43.51,2,2,0,0,0-.47,1.43,1.89,1.89,0,0,0,.51,1.4A1.92,1.92,0,0,0,64.89,116.27Zm6.37,0.57q1.53,0,1.53-2.28,0-2.93-1.87-2.93a1.08,1.08,0,0,0-1,.46,2.79,2.79,0,0,0-.3,1.48v1.22Q69.65,116.84,71.26,116.84Z" transform="translate(14 -1.38)"/><path class="d" d="M62.57,108.71h4.81a2.35,2.35,0,0,0,1.63-.47,1.9,1.9,0,0,0,.51-1.46,2.55,2.55,0,0,0-.67-2,3.14,3.14,0,0,0-2.18-.63h-4.1v-0.67H70v0.57l-1,.12v0a2.79,2.79,0,0,1,1.16,2.58q0,2.54-2.71,2.54H62.57v-0.67Z" transform="translate(14 -1.38)"/><path class="d" d="M70.14,98a3.24,3.24,0,0,1-1,2.53,4,4,0,0,1-2.8.91,4.36,4.36,0,0,1-2.85-.87,2.89,2.89,0,0,1-1.07-2.36,2.55,2.55,0,0,1,.92-2.07,3.78,3.78,0,0,1,2.49-.76h0.55v5.35a3.52,3.52,0,0,0,2.34-.71,2.51,2.51,0,0,0,.81-2,6.19,6.19,0,0,0-.09-1.12A6.79,6.79,0,0,0,69,95.7h0.62A5.39,5.39,0,0,1,70,96.87,6.42,6.42,0,0,1,70.14,98Zm-7.11.2a2.23,2.23,0,0,0,.71,1.72,3.34,3.34,0,0,0,2,.76V96.13a3.24,3.24,0,0,0-2,.56A1.85,1.85,0,0,0,63,98.24Z" transform="translate(14 -1.38)"/><path class="d" d="M62.43,87a3.08,3.08,0,0,1,.29-1.39,2.78,2.78,0,0,1,1-1.05v0q-0.86,0-1.69,0H59.36V83.88H70v0.44l-1.13.17v0.05A2.75,2.75,0,0,1,70.14,87a2.92,2.92,0,0,1-1,2.35,4.2,4.2,0,0,1-2.79.81,4.66,4.66,0,0,1-2.95-.81A2.81,2.81,0,0,1,62.43,87ZM63,87a2.1,2.1,0,0,0,.85,1.83,4.23,4.23,0,0,0,2.48.61q3.16,0,3.16-2.45a2.23,2.23,0,0,0-.73-1.85,3.88,3.88,0,0,0-2.41-.59H66.27a4.13,4.13,0,0,0-2.48.58A2.2,2.2,0,0,0,63,87Z" transform="translate(14 -1.38)"/><path class="d" d="M60.5,81.49q-0.66,0-.66-0.43A0.38,0.38,0,0,1,60,80.72a0.84,0.84,0,0,1,.49-0.12,0.86,0.86,0,0,1,.49.12,0.38,0.38,0,0,1,.18.33Q61.17,81.49,60.5,81.49Zm9.5-.77v0.68H62.57V80.71H70Z" transform="translate(14 -1.38)"/><path class="d" d="M68.07,73.62a1.77,1.77,0,0,1,1.53.76,3.69,3.69,0,0,1,.54,2.15,5.13,5.13,0,0,1-.46,2.37H68.95a5.22,5.22,0,0,0,.56-2.37,3.13,3.13,0,0,0-.37-1.67,1.11,1.11,0,0,0-1-.57,1.19,1.19,0,0,0-.94.45,5,5,0,0,0-.75,1.49,8.57,8.57,0,0,1-.69,1.57,2.18,2.18,0,0,1-.66.68,1.65,1.65,0,0,1-.89.23,1.52,1.52,0,0,1-1.32-.7,3.41,3.41,0,0,1-.49-2,5.86,5.86,0,0,1,.45-2.28L63.49,74a5.35,5.35,0,0,0-.45,2,2.94,2.94,0,0,0,.3,1.44,0.92,0.92,0,0,0,.83.53,1.15,1.15,0,0,0,.93-0.41A5.77,5.77,0,0,0,65.88,76a8,8,0,0,1,.65-1.46,2.14,2.14,0,0,1,.66-0.69A1.61,1.61,0,0,1,68.07,73.62Z" transform="translate(14 -1.38)"/><path class="d" d="M70.14,68.7a3.24,3.24,0,0,1-1,2.53,4,4,0,0,1-2.8.91,4.36,4.36,0,0,1-2.85-.87,2.89,2.89,0,0,1-1.07-2.36,2.55,2.55,0,0,1,.92-2.07,3.78,3.78,0,0,1,2.49-.76h0.55v5.35a3.52,3.52,0,0,0,2.34-.71,2.51,2.51,0,0,0,.81-2,6.19,6.19,0,0,0-.09-1.12A6.79,6.79,0,0,0,69,66.36h0.62A5.39,5.39,0,0,1,70,67.53,6.42,6.42,0,0,1,70.14,68.7ZM63,68.9a2.23,2.23,0,0,0,.71,1.72,3.34,3.34,0,0,0,2,.76V66.79a3.24,3.24,0,0,0-2,.56A1.85,1.85,0,0,0,63,68.9Z" transform="translate(14 -1.38)"/><path class="d" d="M70,59.51l-1.18.17v0.05a3.54,3.54,0,0,1,1,1.15,3.09,3.09,0,0,1,.3,1.4,2.42,2.42,0,0,1-.56,1.7,2,2,0,0,1-1.55.61,1.91,1.91,0,0,1-1.69-.91,4.92,4.92,0,0,1-.64-2.62l0-1.42H65.17a2.53,2.53,0,0,0-1.6.43A1.67,1.67,0,0,0,63,61.47a4.64,4.64,0,0,0,.57,2.14L63,63.86a5.66,5.66,0,0,1-.57-2.42,2.41,2.41,0,0,1,.64-1.83,2.79,2.79,0,0,1,2-.6H70v0.5Zm-0.48,2.73A2.37,2.37,0,0,0,67,59.68H66.22L66.27,61a4.89,4.89,0,0,0,.49,2.23,1.41,1.41,0,0,0,1.29.67,1.38,1.38,0,0,0,1.08-.43A1.73,1.73,0,0,0,69.52,62.24Z" transform="translate(14 -1.38)"/><path class="d" d="M68.07,52a1.77,1.77,0,0,1,1.53.76,3.69,3.69,0,0,1,.54,2.15,5.13,5.13,0,0,1-.46,2.37H68.95a5.22,5.22,0,0,0,.56-2.37,3.13,3.13,0,0,0-.37-1.67,1.11,1.11,0,0,0-1-.57,1.19,1.19,0,0,0-.94.45,5,5,0,0,0-.75,1.49,8.57,8.57,0,0,1-.69,1.57,2.18,2.18,0,0,1-.66.68,1.65,1.65,0,0,1-.89.23,1.52,1.52,0,0,1-1.32-.7,3.41,3.41,0,0,1-.49-2,5.86,5.86,0,0,1,.45-2.28l0.62,0.25a5.35,5.35,0,0,0-.45,2,2.94,2.94,0,0,0,.3,1.44,0.92,0.92,0,0,0,.83.53A1.15,1.15,0,0,0,65.11,56a5.77,5.77,0,0,0,.78-1.62,8,8,0,0,1,.65-1.46,2.14,2.14,0,0,1,.66-0.69A1.61,1.61,0,0,1,68.07,52Z" transform="translate(14 -1.38)"/><path class="d" d="M70.14,47.08a3.24,3.24,0,0,1-1,2.53,4,4,0,0,1-2.8.91,4.36,4.36,0,0,1-2.85-.87,2.89,2.89,0,0,1-1.07-2.36,2.55,2.55,0,0,1,.92-2.07,3.78,3.78,0,0,1,2.49-.76h0.55V49.8a3.52,3.52,0,0,0,2.34-.71,2.51,2.51,0,0,0,.81-2A6.19,6.19,0,0,0,69.43,46,6.79,6.79,0,0,0,69,44.74h0.62A5.39,5.39,0,0,1,70,45.9,6.42,6.42,0,0,1,70.14,47.08Zm-7.11.2A2.23,2.23,0,0,0,63.73,49a3.34,3.34,0,0,0,2,.76V45.17a3.24,3.24,0,0,0-2,.56A1.85,1.85,0,0,0,63,47.28Z" transform="translate(14 -1.38)"/></g></svg>