<svg xmlns="http://www.w3.org/2000/svg" viewBox="0 0 1484.56 229.04"><defs><style>.a{fill:#ff970b;}.b{fill:#0ba5ff;}.c{fill:#3f3f3f;}</style></defs><title>logo</title><path class="a" d="M662.33,69.85s0.21,89.55.42,104.67l-0.42.21C652.43,161,585,69.85,585,69.85H552.14V228.31H585.6s-0.21-89.55-.42-104.67l0.42-.21C595.51,137.2,663,228.31,663,228.31H695.7V69.85H662.33Z"/><polygon class="b" points="734.79 0 699.97 0.52 699.97 65.58 734.79 65.58 734.79 0"/><rect class="b" x="830.7" y="4.9" width="32.74" height="60.78"/><rect class="b" x="941.52" y="34.72" width="32.84" height="30.86"/><polygon class="b" points="695.8 65.58 695.8 20.85 662.34 21.27 662.34 65.68 695.7 65.68 695.7 65.58 695.8 65.58"/><polygon class="b" points="584.98 45.66 552.14 45.45 552.14 65.68 584.98 65.68 584.98 45.66"/><rect class="b" x="765.96" y="17.93" width="33.67" height="47.75"/><path class="a" d="M902.53,122.81l-39-52.44H830.7v64.82l33.47,82.51s-0.21-78.11-.42-93.23l0.42-.21c6.15,8.65,38.26,52.44,38.26,52.44s32.11-43.79,38.26-52.44V229h33.47V70.37H941.52Z"/><path class="a" d="M799.74,70.16H766l-26.9,66.39v87.62l11.16-28.7h63.91l12.72,33.26h37.22ZM761,168s17.1-45.87,21.27-58h0.42c4.17,12,21.06,58,21.06,58H761Z"/><rect class="a" x="699.97" y="69.85" width="34.82" height="158.46"/><polygon class="c" points="437.86 178.1 437.85 178.1 437.85 178.1 437.86 178.1"/><polygon class="c" points="37.24 174.3 3.1 128.6 0 128.6 0 129.6 0 181 3.6 181 3.6 135.3 37.74 181 40.84 181 40.84 128.6 37.24 128.6 37.24 174.3"/><path class="c" d="M81.18,149.45a18.54,18.54,0,0,0-26.29,0,20,20,0,0,0,0,26.84,18.54,18.54,0,0,0,26.29,0A20,20,0,0,0,81.18,149.45Zm-2.63,24.43a14.88,14.88,0,0,1-21,0,16.47,16.47,0,0,1,0-22,14.88,14.88,0,0,1,21,0A16.48,16.48,0,0,1,78.55,173.88Z"/><polygon class="c" points="106.08 175.4 92.85 144.75 89 144.75 89.61 146.15 104.69 181 107.47 181 123.23 144.75 119.38 144.75 106.08 175.4"/><path class="c" d="M143.43,144A16.88,16.88,0,0,0,131,149.36a19.55,19.55,0,0,0-5.07,13.52,18.89,18.89,0,0,0,5.33,13.59,18.68,18.68,0,0,0,13.42,5.3,22,22,0,0,0,11.89-3.43L157,178v-4.4l-1.59,1.17a18,18,0,0,1-10.68,3.43,14.54,14.54,0,0,1-15.17-14.15H159l0.09-.9a25.35,25.35,0,0,0,.14-2.61,16.78,16.78,0,0,0-4.64-12.19A15.55,15.55,0,0,0,143.43,144Zm-13.71,16.57a15.12,15.12,0,0,1,4.52-9.39,13.36,13.36,0,0,1,9.12-3.64,12.8,12.8,0,0,1,7.91,2.71c2.39,2,4.23,5.11,4.3,10.33H129.72Z"/><polygon class="c" points="171.3 125.82 167.7 125.82 167.7 126.82 167.7 181 171.3 181 171.3 125.82"/><polygon class="c" points="200.35 129.6 200.35 181 203.95 181 203.95 128.6 200.35 128.6 200.35 129.6"/><path class="c" d="M219.27,153.59a28.24,28.24,0,0,1,6.21-4.33,16.29,16.29,0,0,1,7.27-1.74,11.13,11.13,0,0,1,4,.64,7.2,7.2,0,0,1,2.7,1.77h0a7.71,7.71,0,0,1,1.91,3.36,20,20,0,0,1,.6,5.48V181h3.6V158.49a22.35,22.35,0,0,0-.78-6.41,10.85,10.85,0,0,0-2.71-4.67,12.62,12.62,0,0,0-9.2-3.42,19.46,19.46,0,0,0-8.4,2,27.93,27.93,0,0,0-5.15,3.23v-4.44h-3.6V181h3.6V153.59Z"/><path class="c" d="M272.17,144.75H261.73v-7.56a18.69,18.69,0,0,1,.33-3.82,5.93,5.93,0,0,1,1.9-3.55,6.77,6.77,0,0,1,4.42-1.24,12.17,12.17,0,0,1,3.6.51l1.3,0.41v-3.73l-0.74-.2a18,18,0,0,0-4.16-.52,10.82,10.82,0,0,0-7.29,2.56h0a8.47,8.47,0,0,0-2.36,4.06,21.09,21.09,0,0,0-.6,5.58v7.49h-6.4v3.46h6.4V181h3.6V148.21h10.44v-3.46Z"/><path class="c" d="M292.4,144A16.88,16.88,0,0,0,280,149.36a19.55,19.55,0,0,0-5.07,13.52,18.89,18.89,0,0,0,5.33,13.59,18.68,18.68,0,0,0,13.42,5.3,22,22,0,0,0,11.89-3.43L306,178v-4.4l-1.59,1.17a18,18,0,0,1-10.68,3.43,14.54,14.54,0,0,1-15.17-14.15h29.37l0.09-.9a25.35,25.35,0,0,0,.14-2.61,16.78,16.78,0,0,0-4.64-12.19A15.55,15.55,0,0,0,292.4,144Zm-13.71,16.57a15.12,15.12,0,0,1,4.52-9.39,13.36,13.36,0,0,1,9.12-3.64,12.8,12.8,0,0,1,7.91,2.71c2.39,2,4.23,5.11,4.3,10.33H278.69Z"/><path class="c" d="M332.43,178.23A14.85,14.85,0,0,1,321.67,174a15.38,15.38,0,0,1-4.24-11,15.61,15.61,0,0,1,4.22-11,14.91,14.91,0,0,1,10.93-4.39,17.5,17.5,0,0,1,8.77,2.38l1.49,0.83V146.6l-0.54-.28a21,21,0,0,0-9.72-2.34,18.48,18.48,0,0,0-13.59,5.5,20.08,20.08,0,0,0,0,26.85,18.27,18.27,0,0,0,13.41,5.43,21.87,21.87,0,0,0,10.44-2.63l0.52-.28V174.5l-1.56,1.05A16.82,16.82,0,0,1,332.43,178.23Z"/><path class="c" d="M369.69,180.79l0.64-.25v-4l-1.47.77a8.56,8.56,0,0,1-4,.93,7.64,7.64,0,0,1-3.49-.69,4.3,4.3,0,0,1-1.51-1.26,7.5,7.5,0,0,1-1.25-3.2,26.65,26.65,0,0,1-.33-4.7V148.21h12v-3.46h-12V134.4l-3.6.63v9.73h-7.45v3.46h7.45v20.37a28.32,28.32,0,0,0,.47,5.7,9.51,9.51,0,0,0,2.07,4.48h0a8.07,8.07,0,0,0,3.42,2.3,12.2,12.2,0,0,0,4.14.68A13.73,13.73,0,0,0,369.69,180.79Z"/><polygon class="c" points="377.17 145.75 377.17 181 380.77 181 380.77 144.75 377.17 144.75 377.17 145.75"/><path class="c" d="M378.93,136.45a2.84,2.84,0,1,0-2-.83A2.81,2.81,0,0,0,378.93,136.45Z"/><path class="c" d="M407.75,144a18,18,0,0,0-13.15,5.47,20,20,0,0,0,0,26.84,18.54,18.54,0,0,0,26.29,0,20,20,0,0,0,0-26.84A18,18,0,0,0,407.75,144Zm10.51,29.9a14.88,14.88,0,0,1-21,0,16.47,16.47,0,0,1,0-22,14.88,14.88,0,0,1,21,0A16.48,16.48,0,0,1,418.27,173.88Z"/><path class="c" d="M460.77,172a27.55,27.55,0,0,1-6.05,4.43,15.69,15.69,0,0,1-7.29,1.84c-3.08,0-5.43-.92-6.85-2.46h0a8.26,8.26,0,0,1-1.9-3.88,27.19,27.19,0,0,1-.55-6.09v-21h-3.6v21.4a27.62,27.62,0,0,0,.73,7,11.45,11.45,0,0,0,2.59,4.93,10.57,10.57,0,0,0,4.06,2.77,14.45,14.45,0,0,0,5.24.9,19.68,19.68,0,0,0,8.65-2,25.5,25.5,0,0,0,5-3.22V181h3.6V144.75h-3.6V172Z"/><path class="c" d="M499.28,166.13a11.33,11.33,0,0,0-5.88-4.07,37.25,37.25,0,0,0-6.55-1.43h0a26.68,26.68,0,0,1-7.43-1.8,6,6,0,0,1-2.33-1.84,4.9,4.9,0,0,1-.86-3,5.75,5.75,0,0,1,.66-2.78,6.29,6.29,0,0,1,3.28-2.73,15.62,15.62,0,0,1,5.93-1,20.92,20.92,0,0,1,11.75,3.37l1.57,1.08v-4.42l-0.49-.29A25.66,25.66,0,0,0,486.21,144c-4,0-7.39.86-9.8,2.57a8.93,8.93,0,0,0-2.81,3.2,9.28,9.28,0,0,0-1,4.28,8.34,8.34,0,0,0,1.49,5,11.13,11.13,0,0,0,5.75,3.82,36.76,36.76,0,0,0,6.28,1.32,26.44,26.44,0,0,1,7.68,2,6.51,6.51,0,0,1,2.45,2,5.43,5.43,0,0,1,.92,3.21,6.1,6.1,0,0,1-.68,2.93,6.59,6.59,0,0,1-3.43,2.88,16.34,16.34,0,0,1-6.23,1.05,22.25,22.25,0,0,1-12.39-3.59l-1.56-1.06v4.47l0.48,0.29a25.8,25.8,0,0,0,13.33,3.42c4.21,0,7.69-.91,10.18-2.69a9.28,9.28,0,0,0,2.9-3.31,9.55,9.55,0,0,0,1-4.39A9.07,9.07,0,0,0,499.28,166.13Z"/><path class="c" d="M1049.34,128.93l-0.26.61-21.89,51.79h3.91l6.82-16.22h25.54l6.89,16.22h3.91l-22.15-52.4h-2.79Zm-9.94,32.65,11.33-26.79L1062,161.58h-22.6Z"/><path class="c" d="M1094.28,144.31a16.9,16.9,0,0,0-13.26,5.85,20.36,20.36,0,0,0-4.59,13.25,18.51,18.51,0,0,0,4.78,12.91,16.52,16.52,0,0,0,12.23,5.07,17.71,17.71,0,0,0,11.32-4v3.06c0,4.34-1.24,7.65-3.42,9.9s-5.38,3.5-9.57,3.51A17.8,17.8,0,0,1,1082,191l-1.54-1v4.23l0.52,0.28a22.7,22.7,0,0,0,10.85,2.84c5.26,0,9.45-1.74,12.28-4.78s4.25-7.27,4.24-12.09V147.25l-2.35.43A22.91,22.91,0,0,0,1094.28,144.31Zm10.49,28.38a14.46,14.46,0,0,1-11.18,5.17,13,13,0,0,1-9.8-4.06,15.25,15.25,0,0,1-3.75-10.54,16.36,16.36,0,0,1,3.85-11,13.49,13.49,0,0,1,10.4-4.46,19.61,19.61,0,0,1,10.49,3.16V172.7Z"/><path class="c" d="M1134.45,144.31a16.88,16.88,0,0,0-12.42,5.37,19.55,19.55,0,0,0-5.07,13.52,18.89,18.89,0,0,0,5.33,13.59,18.68,18.68,0,0,0,13.42,5.3,22,22,0,0,0,11.89-3.43l0.45-.3V174l-1.59,1.17a18,18,0,0,1-10.68,3.43,14.54,14.54,0,0,1-15.17-14.15H1150l0.09-.9a25.35,25.35,0,0,0,.14-2.61,16.78,16.78,0,0,0-4.64-12.19A15.55,15.55,0,0,0,1134.45,144.31Zm-13.71,16.57a15.12,15.12,0,0,1,4.52-9.39,13.36,13.36,0,0,1,9.12-3.64,12.8,12.8,0,0,1,7.91,2.71c2.39,2,4.23,5.11,4.3,10.33h-25.86Z"/><path class="c" d="M1185.07,147.74a12.62,12.62,0,0,0-9.2-3.42,19.46,19.46,0,0,0-8.4,2,27.93,27.93,0,0,0-5.15,3.23v-4.44h-3.6v36.25h3.6V153.92a28.24,28.24,0,0,1,6.21-4.33,16.29,16.29,0,0,1,7.27-1.74,11.13,11.13,0,0,1,4,.64,7.2,7.2,0,0,1,2.7,1.77h0a7.71,7.71,0,0,1,1.91,3.36,20,20,0,0,1,.6,5.48v22.23h3.6V158.82a22.35,22.35,0,0,0-.78-6.41A10.85,10.85,0,0,0,1185.07,147.74Z"/><path class="c" d="M1205.69,134.73l-3.6.63v9.73h-7.45v3.46h7.45v20.37a28.32,28.32,0,0,0,.47,5.7,9.51,9.51,0,0,0,2.07,4.48h0a8.07,8.07,0,0,0,3.42,2.3,12.2,12.2,0,0,0,4.14.68,13.73,13.73,0,0,0,4.89-1l0.64-.25v-4l-1.47.77a8.55,8.55,0,0,1-4,.93,7.64,7.64,0,0,1-3.49-.69,4.3,4.3,0,0,1-1.51-1.26,7.5,7.5,0,0,1-1.25-3.2,26.65,26.65,0,0,1-.33-4.7V148.54h12v-3.46h-12V134.73Z"/><polygon class="c" points="1266.08 159.08 1245.17 128.93 1242.11 128.93 1242.11 129.93 1242.11 181.33 1245.71 181.33 1245.71 135.95 1266.08 165.31 1286.45 135.95 1286.45 181.33 1290.06 181.33 1290.06 128.93 1287 128.93 1266.08 159.08"/><path class="c" d="M1317.25,144.31a18,18,0,0,0-13.15,5.47,20,20,0,0,0,0,26.84,18.54,18.54,0,0,0,26.29,0,20,20,0,0,0,0-26.84A18,18,0,0,0,1317.25,144.31Zm10.51,29.9a14.88,14.88,0,0,1-21,0,16.47,16.47,0,0,1,0-22,14.88,14.88,0,0,1,21,0A16.48,16.48,0,0,1,1327.76,174.21Z"/><path class="c" d="M1370.58,147.74a12.62,12.62,0,0,0-9.2-3.42,19.46,19.46,0,0,0-8.4,2,27.93,27.93,0,0,0-5.15,3.23v-4.44h-3.6v36.25h3.6V153.92a28.24,28.24,0,0,1,6.21-4.33,16.29,16.29,0,0,1,7.27-1.74,11.13,11.13,0,0,1,4,.64,7.2,7.2,0,0,1,2.7,1.77h0a7.71,7.71,0,0,1,1.91,3.36,20,20,0,0,1,.6,5.48v22.23h3.6V158.82a22.35,22.35,0,0,0-.78-6.41A10.85,10.85,0,0,0,1370.58,147.74Z"/><path class="c" d="M1387.21,131.16a2.84,2.84,0,1,0,2,.83A2.8,2.8,0,0,0,1387.21,131.16Z"/><polygon class="c" points="1385.45 146.08 1385.45 181.33 1389.05 181.33 1389.05 145.08 1385.45 145.08 1385.45 146.08"/><path class="c" d="M1406.31,134.73l-3.6.63v9.73h-7.45v3.46h7.45v20.37a28.32,28.32,0,0,0,.47,5.7,9.51,9.51,0,0,0,2.07,4.48h0a8.07,8.07,0,0,0,3.42,2.3,12.2,12.2,0,0,0,4.14.68,13.73,13.73,0,0,0,4.89-1l0.64-.25v-4l-1.47.77a8.55,8.55,0,0,1-4,.93,7.64,7.64,0,0,1-3.49-.69,4.3,4.3,0,0,1-1.51-1.26,7.5,7.5,0,0,1-1.25-3.2,26.65,26.65,0,0,1-.33-4.7V148.54h12v-3.46h-12V134.73Z"/><path class="c" d="M1440,144.31a18,18,0,0,0-13.15,5.47,20,20,0,0,0,0,26.84,18.54,18.54,0,0,0,26.29,0,20,20,0,0,0,0-26.84A18,18,0,0,0,1440,144.31Zm10.51,29.9a14.88,14.88,0,0,1-21,0,16.47,16.47,0,0,1,0-22,14.88,14.88,0,0,1,21,0A16.48,16.48,0,0,1,1450.49,174.21Z"/><path class="c" d="M1481.82,144.59a14.22,14.22,0,0,0-7.27,2.08,19.37,19.37,0,0,0-4,3.19v-4.78H1467v36.25h3.6V154.92a19.41,19.41,0,0,1,5.23-5,11.27,11.27,0,0,1,6-1.75,9.27,9.27,0,0,1,1.58.13l1.16,0.19v-3.56l-0.84-.14A11.3,11.3,0,0,0,1481.82,144.59Z"/></svg>