<?xml version="1.0" encoding="utf-8"?>
<!-- Generator: Adobe Illustrator 19.2.1, SVG Export Plug-In . SVG Version: 6.00 Build 0)  -->
<!DOCTYPE svg PUBLIC "-//W3C//DTD SVG 1.1//EN" "http://www.w3.org/Graphics/SVG/1.1/DTD/svg11.dtd">
<svg version="1.1" id="Layer_1" xmlns="http://www.w3.org/2000/svg" xmlns:xlink="http://www.w3.org/1999/xlink" x="0px" y="0px"
	 viewBox="0 0 2035.9 218.5" style="enable-background:new 0 0 2035.9 218.5;" xml:space="preserve">
<style type="text/css">
	.st0{fill:none;}
	.st1{fill:#FF970B;}
	.st2{fill:#0BA5FF;}
	.st3{fill:#FFFFFF;}
</style>
<g>
	<path class="st0" d="M1005.1,105h-0.4c-4,11.6-9.5,26.7-14.3,39.5l-6.1,16.2h41l-6.3-17C1014.6,131.7,1009.1,116.5,1005.1,105z"/>
	<g>
		<path class="st1" d="M889.7,123c0,14.7,0.2,29.4,0.4,43.9l-0.4,0.2c-9.5-13.2-18.7-26-28.6-39.3l-45.6-61.3H784v152h32.1V162
			c0-14.7-0.2-29.4-0.4-43.9l0.4-0.2c9.5,13.2,18.7,26,28.6,39.3l45.6,61.3h31.5v-152h-32.1V123z"/>
	</g>
	<g>
		<polygon class="st2" points="959.2,-0.5 925.8,0 925.8,62.5 959.2,62.5 		"/>
	</g>
	<g>
		<rect x="1051.2" y="4.2" class="st2" width="31.4" height="58.3"/>
	</g>
	<g>
		<rect x="1157.5" y="32.8" class="st2" width="31.5" height="29.6"/>
	</g>
	<g>
		<polygon class="st2" points="889.7,62.5 921.8,62.5 921.8,19.5 889.7,19.9 		"/>
	</g>
	<g>
		<polygon class="st2" points="815.5,43.3 784,43.1 784,62.5 815.5,62.5 		"/>
	</g>
	<g>
		<rect x="989.1" y="16.7" class="st2" width="32.3" height="45.8"/>
	</g>
	<g>
		<path class="st1" d="M1157.5,67l-0.6,0.8l-36.8,49.5L1082.7,67h-31.5V140l32,78.9h-32v0.3l0,0h0h31.5h0.6v-0.8v-50.6v-5
			c0-14.7-0.2-29.4-0.4-43.9l0.4-0.2c5.9,8.3,11.8,16.4,17.7,24.6c3.6,4.9,7.2,9.8,10.8,14.7l8.2,11l8.2-11
			c3.7-4.9,7.3-9.8,10.8-14.7c6-8.2,11.8-16.3,17.7-24.6l0,0v5c0,6.5,0,13,0.1,19.5c-0.1,6.5-0.1,13-0.1,19.6v5v50.6v0.8h0.6h31.5h0
			V67h0H1157.5z"/>
	</g>
	<g>
		<path class="st1" d="M1046.2,220.8l-12.2-31.9h-58.6L963,220.8h-38.6l1.7-4.3h31v-76.4l30.6-75.4h35l63.4,156H1046.2z
			 M1022.4,158.6l-5.3-14.3c-4.4-11.9-8.8-24.2-12.2-33.9c-3.8,11-8.5,23.8-12.6,34.7l-5.1,13.5H1022.4z"/>
		<path class="st3" d="M1021.5,66.8l29.7,73.2l32,78.9h-32h-3.7l-12.2-31.9H974l-12.4,31.9h-34.2l0.1-0.3h31.7v-78l29.9-73.8H1021.5
			 M984.3,160.6h41l-6.3-17c-4.4-12-9.9-27.1-13.9-38.6h-0.4c-4,11.6-9.5,26.7-14.3,39.5L984.3,160.6 M1024.2,62.8h-2.7h-32.3h-2.7
			l-1,2.5L955.5,139l-0.3,0.7v0.8v74h-27.7h-2.7l-1,2.5l-0.1,0.3l-2.2,5.5h5.9h34.2h2.7l1-2.6l11.4-29.4h55.8l11.2,29.3l1,2.6h2.8
			h3.7h32h5.9l-2.2-5.5l-32-78.9l-29.7-73.2L1024.2,62.8L1024.2,62.8z M990.1,156.6l4.1-10.8c3.5-9.2,7.3-19.7,10.7-29.4
			c3.1,8.7,6.7,18.7,10.3,28.5l4.3,11.6H990.1L990.1,156.6z"/>
	</g>
	<g>
		<rect x="923.8" y="64.4" class="st1" width="37.5" height="156.1"/>
		<path class="st3" d="M959.2,66.5v74v78h-31.7h-1.7v-152H959.2 M963.3,62.4h-4.1h-33.4h-4.1v4.1v152v4.1h4.1h1.7h31.7h4.1v-4.1v-78
			v-74V62.4L963.3,62.4z"/>
	</g>
</g>
<g>
	<path d="M-2.3,119.2H0l51.1,68.4h0.1v-68.4h2.3v72.4h-2.3L0.1,123.2H0v68.4h-2.3V119.2z"/>
	<path d="M94,141.3c14.4,0,24.9,11.2,24.9,25.7s-10.5,25.7-24.9,25.7S69.1,181.5,69.1,167S79.6,141.3,94,141.3z M94,190.5
		c12.9,0,22.6-10,22.6-23.5s-9.7-23.5-22.6-23.5s-22.6,10-22.6,23.5S81.1,190.5,94,190.5z"/>
	<path d="M126.3,142.4h2.4l19.9,46.1h0.1l20-46.1h2.4l-21.4,49.2h-2.1L126.3,142.4z"/>
	<path d="M180.9,167.3c0.1,13.2,9.4,23.2,23.3,23.2c6.1,0,11.7-1.9,16.2-5.2v2.7c-4.6,3-10.4,4.7-16.3,4.7
		c-14.7,0-25.5-10.6-25.5-25.7c0-14.9,10.5-25.7,23.7-25.7c11.6,0,21.2,8.3,21.2,22.4c0,1.4-0.1,2.6-0.2,3.6H180.9z M181,165.1h40.2
		V164c0-16.1-11.6-20.5-19-20.5C192,143.5,181.9,151.3,181,165.1z"/>
	<path d="M238.6,115.2h2.3v76.4h-2.3V115.2z"/>
	<path d="M285.5,119.2h2.3v72.4h-2.3V119.2z"/>
	<path d="M307.5,142.4h2.3v7.8l0.1,0.1c5.5-4.8,12.5-9,20.8-9c5,0,9.2,1.5,12.2,4.5c3.3,3.3,4.6,8,4.6,14.9v30.9h-2.3v-30.5
		c0-6.8-1.1-10.7-4-13.7c-2.4-2.5-5.8-3.9-10.6-3.9c-8,0-14.6,3.9-20.8,9.5v38.6h-2.3V142.4z"/>
	<path d="M368.5,144.5h-9.2v-2.1h9.2v-12.2c0-6,0.9-10.1,3.8-12.8c2.6-2.4,6.3-3.3,9.5-3.3c1.8,0,4.1,0.3,5.6,0.7v2.3
		c-1.6-0.5-3.5-0.8-5.6-0.8c-8.6,0-11,5.2-11,13.8v12.3h15v2.1h-15v47.1h-2.3V144.5z"/>
	<path d="M394.9,167.3c0.1,13.2,9.4,23.2,23.3,23.2c6.1,0,11.7-1.9,16.2-5.2v2.7c-4.6,3-10.4,4.7-16.3,4.7
		c-14.7,0-25.5-10.6-25.5-25.7c0-14.9,10.5-25.7,23.7-25.7c11.6,0,21.2,8.3,21.2,22.4c0,1.4-0.1,2.6-0.2,3.6H394.9z M395,165.1h40.2
		V164c0-16.1-11.6-20.5-19-20.5C406,143.5,395.9,151.3,395,165.1z"/>
	<path d="M474,141.3c5,0,9.4,1.2,13.3,3.2v2.6c-4.3-2.4-8.6-3.6-13.3-3.6c-13.7,0-23.2,10.1-23.2,23.6c0,13.7,9.7,23.4,23,23.4
		c5.5,0,10.5-1.6,14.2-4.1v2.7c-4,2.2-9,3.6-14.3,3.6c-15,0-25.2-11.1-25.2-25.6C448.5,152.6,458.7,141.3,474,141.3z"/>
	<path d="M507.2,175.2v-30.7h-10.7v-2.1h10.7v-14.2l2.3-0.4v14.6h17.3v2.1h-17.3v30.4c0,9.2,1.5,15.6,10.9,15.6
		c2.3,0,4.5-0.5,6.4-1.5v2.4c-1.8,0.7-4.1,1.3-6.5,1.3c-3.8,0-7.5-1.1-9.8-3.8C507.8,185.9,507.2,181,507.2,175.2z"/>
	<path d="M540.6,122.4c1.4,0,2.6,1.2,2.6,2.6s-1.2,2.6-2.6,2.6c-1.4,0-2.6-1.2-2.6-2.6S539.2,122.4,540.6,122.4z M539.5,142.4h2.3
		v49.2h-2.3V142.4z"/>
	<path d="M582,141.3c14.4,0,24.9,11.2,24.9,25.7s-10.5,25.7-24.9,25.7s-24.9-11.2-24.9-25.7S567.6,141.3,582,141.3z M582,190.5
		c12.9,0,22.6-10,22.6-23.5s-9.7-23.5-22.6-23.5s-22.6,10-22.6,23.5S569.1,190.5,582,190.5z"/>
	<path d="M621.9,171.7v-29.3h2.3v28.8c0,7,0.9,12.1,3.9,15.3c2.4,2.6,6.2,4,10.9,4c8.1,0,14.7-4.2,20.6-9.8v-38.3h2.3v49.2h-2.3
		v-8.1h-0.1c-5.1,4.8-12.2,9.2-20.9,9.2c-5.2,0-9.4-1.6-12.3-4.8C623.1,184.4,621.9,179.5,621.9,171.7z"/>
	<path d="M677,185.1c5,3.4,11.6,5.4,18.6,5.4c9.9,0,16.3-3.9,16.3-11.3c0-8.9-9.3-10.6-17.1-11.8c-6.9-1-18.2-2.7-18.2-13.1
		c0-8.2,6.9-13,18.1-13c6.6,0,12.9,1.8,17.5,4.5v2.8c-4.8-3.3-11.1-5.1-17.7-5.1c-9.4,0-15.6,3.7-15.6,10.8c0,8.4,8.9,9.8,16.5,10.9
		c7.3,1.1,18.8,2.9,18.8,14c0,8.4-7.1,13.5-18.8,13.5c-7,0-13.5-1.7-18.4-4.7V185.1z"/>
</g>
<g>
	<path d="M1284.7,112.2h2.1l30.6,72.4h-2.5l-9.9-23.3h-38.6l-9.8,23.3h-2.5L1284.7,112.2z M1267.3,159.2h36.8l-18.3-43.5h-0.1
		L1267.3,159.2z"/>
	<path d="M1329.9,201.3c4.7,3,9.7,4.3,14.8,4.3c12.6,0,20.1-7.7,20.1-20.7v-7.6h-0.1c-4.2,4.6-10.5,7.5-17.6,7.5
		c-13.4,0-23-10.1-23-24.4c0-13.6,8.6-26,24.2-26c6.1,0,11.7,1.9,16.6,4.9l2.2-0.4V185c0,13.3-7.8,22.8-22.3,22.8
		c-5.4,0-10.5-1.5-14.9-3.9V201.3z M1347.3,182.6c6.9,0,13-2.9,17.5-8.3v-32.5c-3.9-2.7-9.8-5.2-16.5-5.2
		c-13.5,0-21.9,10.5-21.9,23.6C1326.4,173.3,1334.8,182.6,1347.3,182.6z"/>
	<path d="M1384.6,160.4c0.1,13.2,9.4,23.2,23.3,23.2c6.1,0,11.7-1.9,16.2-5.2v2.7c-4.6,3-10.4,4.7-16.3,4.7
		c-14.7,0-25.5-10.6-25.5-25.7c0-14.9,10.5-25.7,23.7-25.7c11.6,0,21.2,8.3,21.2,22.4c0,1.4-0.1,2.6-0.2,3.6H1384.6z M1384.7,158.2
		h40.2v-1.1c0-16.1-11.6-20.5-19-20.5C1395.7,136.5,1385.6,144.4,1384.7,158.2z"/>
	<path d="M1442.3,135.4h2.3v7.8l0.1,0.1c5.5-4.8,12.5-9,20.8-9c5,0,9.2,1.5,12.2,4.5c3.3,3.3,4.6,8,4.6,14.9v30.9h-2.3v-30.5
		c0-6.8-1.1-10.7-4-13.7c-2.4-2.5-5.8-3.9-10.6-3.9c-8,0-14.6,3.9-20.8,9.5v38.6h-2.3V135.4z"/>
	<path d="M1504.6,168.3v-30.7h-10.7v-2.1h10.7v-14.2l2.3-0.4v14.6h17.3v2.1h-17.3V168c0,9.2,1.5,15.6,10.9,15.6
		c2.3,0,4.5-0.5,6.4-1.5v2.4c-1.8,0.7-4.1,1.3-6.5,1.3c-3.8,0-7.5-1.1-9.8-3.8C1505.2,179,1504.6,174.1,1504.6,168.3z"/>
	<path d="M1562.1,112.2h2.2l30.8,44.4l30.8-44.4h2.2v72.4h-2.3v-68.2h-0.1l-30.6,44.1l-30.6-44.1h-0.1v68.2h-2.3V112.2z"/>
	<path d="M1668.6,134.3c14.4,0,24.9,11.2,24.9,25.7s-10.5,25.7-24.9,25.7c-14.4,0-24.9-11.2-24.9-25.7S1654.2,134.3,1668.6,134.3z
		 M1668.6,183.6c12.9,0,22.6-10,22.6-23.5s-9.7-23.5-22.6-23.5c-12.9,0-22.6,10-22.6,23.5S1655.7,183.6,1668.6,183.6z"/>
	<path d="M1708.8,135.4h2.3v7.8l0.1,0.1c5.5-4.8,12.5-9,20.8-9c5,0,9.2,1.5,12.2,4.5c3.3,3.3,4.6,8,4.6,14.9v30.9h-2.3v-30.5
		c0-6.8-1.1-10.7-4-13.7c-2.4-2.5-5.8-3.9-10.6-3.9c-8,0-14.6,3.9-20.8,9.5v38.6h-2.3V135.4z"/>
	<path d="M1769.1,115.4c1.4,0,2.6,1.2,2.6,2.6s-1.2,2.6-2.6,2.6c-1.4,0-2.6-1.2-2.6-2.6S1767.7,115.4,1769.1,115.4z M1768,135.4h2.3
		v49.2h-2.3V135.4z"/>
	<path d="M1792.8,168.3v-30.7h-10.7v-2.1h10.7v-14.2l2.3-0.4v14.6h17.3v2.1h-17.3V168c0,9.2,1.5,15.6,10.9,15.6
		c2.3,0,4.5-0.5,6.4-1.5v2.4c-1.8,0.7-4.1,1.3-6.5,1.3c-3.8,0-7.5-1.1-9.8-3.8C1793.4,179,1792.8,174.1,1792.8,168.3z"/>
	<path d="M1844.9,134.3c14.4,0,24.9,11.2,24.9,25.7s-10.5,25.7-24.9,25.7s-24.9-11.2-24.9-25.7S1830.5,134.3,1844.9,134.3z
		 M1844.9,183.6c12.9,0,22.6-10,22.6-23.5s-9.7-23.5-22.6-23.5s-22.6,10-22.6,23.5S1832,183.6,1844.9,183.6z"/>
	<path d="M1885.1,135.4h2.3v8.9l0.2,0.1c4.3-5.5,10.4-9.7,17.4-9.7c1.1,0,1.9,0.1,2.5,0.2v2.2c-0.6-0.1-1.4-0.2-2.5-0.2
		c-6.7,0-12.5,3.7-17.6,10.7v37h-2.3V135.4z"/>
	<path d="M1919.6,115.4c1.4,0,2.6,1.2,2.6,2.6s-1.2,2.6-2.6,2.6c-1.4,0-2.6-1.2-2.6-2.6S1918.2,115.4,1919.6,115.4z M1918.5,135.4
		h2.3v49.2h-2.3V135.4z"/>
	<path d="M1940.2,135.4h2.3v7.8l0.1,0.1c5.5-4.8,12.5-9,20.8-9c5,0,9.2,1.5,12.2,4.5c3.3,3.3,4.6,8,4.6,14.9v30.9h-2.3v-30.5
		c0-6.8-1.1-10.7-4-13.7c-2.4-2.5-5.8-3.9-10.6-3.9c-8,0-14.6,3.9-20.8,9.5v38.6h-2.3V135.4z"/>
	<path d="M2001,201.3c4.7,3,9.7,4.3,14.8,4.3c12.6,0,20.1-7.7,20.1-20.7v-7.6h-0.1c-4.2,4.6-10.5,7.5-17.6,7.5
		c-13.4,0-23-10.1-23-24.4c0-13.6,8.6-26,24.2-26c6.1,0,11.7,1.9,16.6,4.9l2.2-0.4V185c0,13.3-7.8,22.8-22.3,22.8
		c-5.4,0-10.5-1.5-14.9-3.9V201.3z M2018.4,182.6c6.9,0,13-2.9,17.5-8.3v-32.5c-3.9-2.7-9.8-5.2-16.5-5.2
		c-13.5,0-21.9,10.5-21.9,23.6C1997.5,173.3,2005.9,182.6,2018.4,182.6z"/>
</g>
<rect x="-254.5" y="-280.1" class="st0" width="998" height="103.9"/>
<text transform="matrix(1 0 0 1 -254.5093 -203.7071)"><tspan x="0" y="0" style="font-family:'AzoSans-Thin'; font-size:100px; letter-spacing:235;">	</tspan><tspan x="260.7" y="0" style="font-family:'AzoSans-Thin'; font-size:100px;">Novel Infectious</tspan></text>
<rect x="1247.9" y="-282.6" class="st0" width="998" height="80.7"/>
<text transform="matrix(1 0 0 1 1247.9421 -206.2071)" style="font-family:'AzoSans-Thin'; font-size:100px;">Agent Monitoring</text>
</svg>
