<svg xmlns="http://www.w3.org/2000/svg" viewBox="0 0 1189.65 407.65"><defs><style>.a{fill:#fefefe;}.b{fill:#d8d9dd;}.c{fill:#073877;}.d{fill:#13508e;}.e{fill:#a3a4a8;}.f{fill:#a5a6aa;}.g{fill:#033473;}.h{fill:#b0b1b5;}.i{fill:#093a78;}.j{fill:#073473;}.k{fill:#063473;}.l{fill:#053372;}.m{fill:#093674;}.n{fill:#0b3d7c;}.o{fill:#063574;}.p{fill:#2b85c0;}.q{fill:#003070;}.r{fill:#247db8;}.s{fill:#f8f8f8;}.t{fill:#f5f5f5;}.u{fill:#231455;}.v{fill:#104785;}.w{fill:#12508d;}.x{fill:#5fa8d5;}.y{fill:#194e89;}.z{fill:#4080b5;}.aa{fill:#14609d;}.ab{fill:#d6d7d9;}.ac{fill:#e4e5e7;}.ad{fill:#00306f;}.ae{fill:#2f6eb4;}.af{fill:#dddfe1;}.ag{fill:#155492;}.ah{fill:#013070;}.ai{fill:#023070;}.aj{fill:#023170;}.ak{fill:#023171;}.al{fill:#033171;}.am{fill:#043272;}.an{fill:#053373;}.ao{fill:#c9cacd;}.ap{fill:#0b3a78;}.aq{fill:#3ea3da;}.ar{fill:#f2f2f2;}.as{fill:#e8e9ea;}.at{fill:#f7f8f8;}.au{fill:#fafcfb;}.av{fill:#fafafa;}.aw{fill:#1a6ca8;}.ax{fill:#1868a4;}.ay{fill:#ebebed;}.az{fill:#cccdd1;}.ba{fill:#196ca8;}.bb{fill:#ededee;}.bc{fill:#c2c3c7;}.bd{fill:#d1d2d5;}.be{fill:#bdbfc3;}.bf{fill:#114b8a;}.bg{fill:#dadbdd;}.bh{fill:#e2e3e5;}.bi{fill:#40a7de;}.bj{fill:#42a6dc;}.bk{fill:#41a4db;}.bl{fill:#2b81bb;}.bm{fill:#3a98d1;}</style></defs><title>promed-logo</title><path class="a" d="M0,186.15Q0,97,0,7.77C0,6.42.3,6.12,1.65,6.12Q108.3,6.18,215,6.15c-0.11,1-.93.76-1.51,0.8A151,151,0,0,0,150.92,25a143.4,143.4,0,0,0-28.06,19.65,174.16,174.16,0,0,0-18.78,19.54A134.56,134.56,0,0,0,94.3,78a155.18,155.18,0,0,0-15.12,31.35A150.89,150.89,0,0,0,72.56,136c-0.49,3-.82,6-1.09,9.09a2.59,2.59,0,0,1-.45,1.52,4.36,4.36,0,0,1-2.16.81A250.09,250.09,0,0,0,30.67,159c-7.14,2.9-14,6.37-19.92,11.35C6.17,174.2,2.45,178.67,1,184.7,0.91,185.26,1,186.09,0,186.15Z" transform="translate(0 -6.12)"/><path class="b" d="M0,186.15c1-2.77,1.65-5.68,3.31-8.24,3.64-5.62,8.69-9.62,14.33-13,9.34-5.6,19.54-9.08,29.86-12.31,7.62-2.38,15.35-4.36,23.16-6a6.54,6.54,0,0,1-.09,5.29c-2,1.24-4.3,1.39-6.49,2-13.32,3.4-26.5,7.18-38.84,13.39-3.43,1.72-4.84,4.4-4.43,8.28a14.91,14.91,0,0,0,3.88,8.33,1.36,1.36,0,0,0,2,.27c12.48-7.53,26.29-11.51,40.27-15,1-.26,2-0.79,3.16-0.52a1.36,1.36,0,0,1,.89,1.41,26,26,0,0,1,.12,4.09,1.23,1.23,0,0,1-1.06.55,194.78,194.78,0,0,0-24.27,7.19,112.7,112.7,0,0,0-12.63,5.62c-0.47.25-1.18,0.44-1.17,1,0,0.73.82,0.76,1.36,1,9.8,3.51,20,5.53,30.22,7.09,3.85,0.58,7.68,1.25,11.57,1.56,6.53,1,13.1,1.46,19.66,2.05,6.86,0.58,13.73,1,20.6,1.41q8.51,0.52,17,.82a72.48,72.48,0,0,0,9.33.48c6,0.11,12,.54,18,0.5,7.37-.06,14.74.55,22.12,0.32a3.51,3.51,0,0,0,1.75-.16,1.23,1.23,0,0,0-.36-1.3c-3.62-5.67-7.22-11.35-10.86-17-0.36-.72-1.23-1.48-0.57-2.23s1.56-.08,2.32.2c3.52,1.27,7,2.61,10.56,3.81,21.53,7.93,43.14,15.65,64.67,23.59,2.87,1.06,5.77,2,8.62,3.12,0.64,0.25,1.43.38,1.63,1.24-0.82,1.14-2.16,1.47-3.33,2-12,5.41-24,10.92-36,16.32-0.49.22-.94,0.53-1.42,0.78-5.33,2.18-10.51,4.68-15.76,7.05-8.91,4-17.82,8-26.69,12.15a4.23,4.23,0,0,1-.5.2c-0.5.16-1.09,0.54-1.53,0.12s-0.1-1.14.15-1.64c2.32-4.61,4.86-9.1,7.27-13.66,1.14-2.17,2.35-4.3,3.33-6.55a2.29,2.29,0,0,0-1.95-.34c-10.56.09-21.11-.36-31.66-0.49-5.61-.07-11.25-0.16-16.88-0.53-3.36-.22-4.43.09-2.33,3.51a79.51,79.51,0,0,0,6.69,8.83,113,113,0,0,0,15.27,15.19,104.07,104.07,0,0,0,10.75,7.81,148,148,0,0,0,18.46,9.57,55.32,55.32,0,0,0,8.32,2.8c1.78,0.48,3.35,1.57,5.26,1.77a12.45,12.45,0,0,1,2.67.25,1.11,1.11,0,0,1,.09,1.33c-1.67,4.15-2.87,8.49-4.95,12.48a18.78,18.78,0,0,1-5.54,6.7,11.38,11.38,0,0,1-5.41-.91,147,147,0,0,1-22.27-9.43,47.17,47.17,0,0,1-8.22-5.08c-1-2.11-.8-4.44-1.28-6.65-0.76-5.13-1.8-10.16-4.78-14.56a13.43,13.43,0,0,0-8-5.51,4.69,4.69,0,0,1-3.17-2.62c-1.88-3.62-4-7.13-5.91-10.71a66.42,66.42,0,0,1-5.74-13.55,2.13,2.13,0,0,0-1.94-1.74c-3-.54-6.1-0.26-9.15-0.54-5.06-.45-10.15-0.63-15.21-1.16a8,8,0,0,0-1.26,0c-3.83,0-7.58-.89-11.41-0.87-1-1.23-2.44-.83-3.65-1-4.53-.65-9.11-0.95-13.65-1.56-6-.8-12-1.68-18-2.85a173.8,173.8,0,0,1-22.87-5.67c-6.4-2.18-12.67-4.64-18-9-4.69-3.8-8.21-8.31-9.22-14.45A1.27,1.27,0,0,0,0,192.27v-6.12Z" transform="translate(0 -6.12)"/><path class="c" d="M103.72,64.11A153.41,153.41,0,0,1,201.65,7.69c3.91-.58,7.84-1,11.79-1.23A1.78,1.78,0,0,0,215,6.15h18c3.08,0.34,6.16.67,9.23,1a153.3,153.3,0,0,1,98.54,52.58c-0.26.93-1,.48-1.47,0.43-0.83-.08-1.61-0.44-2.6-0.57,0,1,.13,1.89.09,2.82a6.44,6.44,0,0,1-2.76,5,3.37,3.37,0,0,1-4.56-.43c-0.7-.8-0.73-1.48.32-2a7,7,0,0,0,1.4-.8,2.53,2.53,0,0,0,.08-4c-5.83-4.29-15-7.06-22.27-3a3.73,3.73,0,0,1-1.85.64,1.7,1.7,0,0,1-1.15-.79c-2.69-3.67-6.24-6.43-9.64-9.37a115.26,115.26,0,0,0-18.41-12.81,126.86,126.86,0,0,0-21.75-9.8c-4.27-1.45-8.6-2.55-12.93-3.72a111.93,111.93,0,0,0-14.7-2.47,102.75,102.75,0,0,0-20.63-.66,129.1,129.1,0,0,0-28.64,4.92A131.33,131.33,0,0,0,158,31.44a126.86,126.86,0,0,0-27.62,18.69c-2,1.83-3.67,4.12-6,5.6a68,68,0,0,0-18.15,8.11C105.43,64.3,104.63,64.85,103.72,64.11Z" transform="translate(0 -6.12)"/><path class="d" d="M218.87,233.68a2,2,0,0,1,1.29-.89l39.33-17.85c0.32-.54.48-1.19,1.29-1.28,1.45-.16,2.41-1.18,3.51-2,2.57-1.92,5-4,7.52-6a19.4,19.4,0,0,0,2.65-2.4,2.33,2.33,0,0,1,1.62-1c1.45-.19,2.85.27,4.29,0.32a32.73,32.73,0,0,0,14.17-2.71c3.09-1.31,4.79-.45,5.37,2.88,0.29,1.66,1.06,2,2.53,2,4.17,0,5.84,2.47,4.5,6.57-0.5,1.53-1.22,3-1.6,4.57a4.14,4.14,0,0,0,.79,3.87,24,24,0,0,1,2.81,4.37,42.22,42.22,0,0,1,4.59,14.65,28.92,28.92,0,0,1-2.33,15.59c-0.39.84-1.1,1.61-.74,2.67,2.43,5.52,3.27,11.41,4,17.32,0.35,2.27.72,4.54,1.16,6.79a3.14,3.14,0,0,1-.14,2.24,142.56,142.56,0,0,1-25.62,15.44,150.7,150.7,0,0,1-44,13.22,153.13,153.13,0,0,1-44.4-.12c-4.26-.64-8.48-1.48-12.69-2.37a0.46,0.46,0,0,1-.2-0.73,8.39,8.39,0,0,0,.8-8.57c6.07-5.38,7.63-13.08,10.41-20.16a1.27,1.27,0,0,1,0-1.36c2-4.36,4.85-7.87,9.51-9.5a3.09,3.09,0,0,0,2.26-2.64c1-5.17,1.65-10.42,2.87-15.55,1.07-4.51,2.38-8.93,5.22-12.71a2.07,2.07,0,0,0,0-2.77A2.45,2.45,0,0,1,218.87,233.68Z" transform="translate(0 -6.12)"/><path class="e" d="M307.1,57.61c8.83-5.17,17-2.88,24.79,2.37,1.51,1,1.12,3.7-.65,4.84a15.19,15.19,0,0,1-2.06.94c1.48,2.43,3.31,2.7,5.23.76,2.17-2.19,2.35-4.81,1.36-7.68,1.77,0.25,3.25,1.25,5,.91a142.08,142.08,0,0,1,17.2,24.36A123.13,123.13,0,0,1,367.28,104a2.9,2.9,0,0,1-1,1c-1.1,1.09-1.09,2,.13,3a29.6,29.6,0,0,1,3.77,4,142.37,142.37,0,0,1,5.37,21.42,161.32,161.32,0,0,1,2.06,35,99.69,99.69,0,0,1-1.64,15.25c-3.28-8-9.06-14.53-13.56-21.81-0.68-1.1-1.61-2.09-1.78-3.47,0.9-2.27.15-4.51-.15-6.74a139.9,139.9,0,0,0-6.16-25.3,126.11,126.11,0,0,0-6.61-15.75,140.36,140.36,0,0,0-15.34-24.07,78.34,78.34,0,0,0-6.82-7.89c-2.65-2.6-5-5.54-7.89-7.85-1-.83-1.88-2.12-3.52-1.82a4.75,4.75,0,0,1-1.56-.31,53.62,53.62,0,0,0-9.45-7.39C303.65,59.21,305.41,58.45,307.1,57.61Z" transform="translate(0 -6.12)"/><path class="f" d="M315.45,283.39c-0.41-3-1.31-6-1.42-9.06,2.5-1,4.16-3,6-4.8a136.43,136.43,0,0,0,40.91-84,142.32,142.32,0,0,0,.82-15.78c0-.93-0.21-1.95.64-2.69,0.94-.25,1.08.57,1.37,1.08a33.08,33.08,0,0,1,2.73,6.61,3.94,3.94,0,0,0,2,2.59c3.33,1.7,5.3,4.72,7.32,7.69Q365,246.08,315.45,283.39Z" transform="translate(0 -6.12)"/><path class="g" d="M85.69,227.19c0-.83.58-0.55,1-0.51l10.54,1c1.39-.1,2.12.88,3.13,1.61,2.14,1.54,2.65,4.21,4.59,5.8a1.74,1.74,0,0,1,.51,1.13,4.68,4.68,0,0,0,2.53,3.5,11.17,11.17,0,0,1,2.94,3.11c1.17,1.58,2.86,2.74,3.7,4.59a2.77,2.77,0,0,0,1.18,1.08,4.06,4.06,0,0,1,1.34,1.18,13.84,13.84,0,0,0,5.11,5.1,1,1,0,0,1,.4.36c1.83,3.07,5.08,4.66,7.59,7a41.76,41.76,0,0,0,6.18,4.53,3.91,3.91,0,0,1,1.63,1.62,0.87,0.87,0,0,0,.38.58c2.27,0.29,3.5,2.5,5.64,3a1.79,1.79,0,0,1,1.63,1.47c0.09,1.18.83,1.15,1.7,1.34a7.49,7.49,0,0,1,5.2,3.63l1.18,6.83a4,4,0,0,1,.68,2,69.86,69.86,0,0,0,1.89,8.76,1.77,1.77,0,0,1-.1,1.86A142.1,142.1,0,0,1,126,278.3,154.6,154.6,0,0,1,85.69,227.19Z" transform="translate(0 -6.12)"/><path class="h" d="M156.27,297.78a98.53,98.53,0,0,1-2.34-10.86,5.64,5.64,0,0,1-.13-1.77c1.57,0.35,2.7,1.51,4,2.29a130.86,130.86,0,0,0,23.47,10.69c2.65,0.92,5.25,2,8.09,2.14,2.08,2.54,1.53,5.14.19,7.76-0.26.51-.84,0.86-0.8,1.54a148.37,148.37,0,0,1-31.32-11A2.29,2.29,0,0,1,156.27,297.78Z" transform="translate(0 -6.12)"/><path class="i" d="M375.8,185c-0.82.54-.88-0.33-1.08-0.67a17.92,17.92,0,0,0-7.18-7,2.5,2.5,0,0,1-1.19-1.66,36.09,36.09,0,0,0-3.76-8.63,12.68,12.68,0,0,1-2.46-3.7c-2.9-5-6-9.8-8.38-15.06a5.21,5.21,0,0,1-.52-1.33c-0.07-.48.07-0.92,0.63-0.81a8.21,8.21,0,0,0,2.67,0,1,1,0,0,1,1.13.72c1.44,3.88,3.4,7.52,5.2,11.22a0.65,0.65,0,0,1,0,.36c2.79,5.16,6.47,9.73,9.62,14.64,1.58,2.46,3.07,5,4.64,7.44a4.8,4.8,0,0,1,.84,3.2Z" transform="translate(0 -6.12)"/><path class="j" d="M537.51,362.39q0-.27,0-0.54c0-2.41.63-2.87,3.06-2.38a0.81,0.81,0,0,1,.73,1c0,0.84,0,1.67,0,2.51,0,2.77-.09,2.81-2.93,2.55a0.78,0.78,0,0,1-.87-1C537.54,363.82,537.51,363.11,537.51,362.39Z" transform="translate(0 -6.12)"/><path class="k" d="M1007.48,362.4c0-.18,0-0.36,0-0.54,0-2.24,1.16-3.06,3.28-2.38a0.77,0.77,0,0,1,.51,1c0,0.9,0,1.79,0,2.69,0,2.25-1.08,3-3.23,2.36a0.78,0.78,0,0,1-.56-1C1007.48,363.83,1007.49,363.11,1007.48,362.4Z" transform="translate(0 -6.12)"/><path class="l" d="M622.06,362.48c0,0.35,0,.53,0,0.71,0,2.16-1.26,3-3.34,2.3a0.79,0.79,0,0,1-.5-1,24,24,0,0,0,0-2.87c-0.23-1.69.31-2.19,2.09-2.22C623.31,359.35,621.55,361.54,622.06,362.48Z" transform="translate(0 -6.12)"/><path class="m" d="M875.61,362.47c0-.24,0-0.48,0-0.72,0-2.13,1.2-3,3.2-2.26a0.82,0.82,0,0,1,.54,1q0,1.34,0,2.69c0,2.31-.85,2.92-3.12,2.35a0.73,0.73,0,0,1-.62-0.89C875.62,363.9,875.61,363.18,875.61,362.47Z" transform="translate(0 -6.12)"/><path class="k" d="M370.16,112c-1.15,0-1.29-1.15-2-1.68s-1.26-1.26-1.92-1.87c-2-1.82-1.6-3.49,1-4.43A79.51,79.51,0,0,1,370.16,112Z" transform="translate(0 -6.12)"/><path class="e" d="M103.72,64.11c1.26,0.21,2.14-.6,3.09-1.17a59.94,59.94,0,0,1,17.43-7.54c3.11-1.47,6.33-1.38,9.62-.76,3.11,0.59,6.19,1.33,9.3,1.88,0.88,0.41,2.05-.07,2.73.92a44.37,44.37,0,0,0-6.59,4.47,149.67,149.67,0,0,0-19.58,18.71,144.92,144.92,0,0,0-14.82,20.74,138.16,138.16,0,0,0-16.55,44.25,119.33,119.33,0,0,0-2.22,18.54,38.69,38.69,0,0,0-.09,7.16,1.74,1.74,0,0,1-.9,2,5.4,5.4,0,0,1-3.1-4.9c0.12-4.92-1.35-9.44-2.8-14-1.05-3.31-2-6.65-1.82-9.76-0.22,2.6.56,5.49,1.37,8.36a21.3,21.3,0,0,1,.92,7.45c-0.16,2.15-1.14,2.72-3.14,1.85a7.25,7.25,0,0,1-4.29-5.21,20,20,0,0,1-.31-7,77.47,77.47,0,0,0,.12-11.84c0-.83.4-1.66,0-2.47a137,137,0,0,1,6.78-26.67c2.22-3.65,5.26-6.65,8-9.87A17.91,17.91,0,0,1,92,95.13a4,4,0,0,0,2.31-4.59c-0.37-1.78.42-3.26,1.41-4.68,1.2-1.72,2.72-3.21,3.67-5.1,0.39-.77,1.14-1.6.54-2.49s-1.69-.71-2.64-0.74c-1.12,0-2.15.84-3.31,0.27a109.44,109.44,0,0,1,8.46-12.23A3.34,3.34,0,0,1,103.72,64.11Z" transform="translate(0 -6.12)"/><path class="n" d="M72.08,135.79a13.27,13.27,0,0,1,.65,4.36c0.47,4.79-.45,9.56-0.31,14.34,0.1,3.33,1.3,6.07,4.6,7.46,1.7,0.72,2.09.47,2.24-1.37a22.65,22.65,0,0,0-.92-7.43c-0.77-3-1.64-6-1.3-9.17a1.94,1.94,0,0,1,.77-1.87c-0.55,6.5,2.06,12.23,3.79,18.15a18.44,18.44,0,0,1,.95,6.89c-0.25,2.62,1,4.44,2.82,6a2.45,2.45,0,0,1,1.75,1.58,21.23,21.23,0,0,1,1,5.27,9.06,9.06,0,0,0,1.4,4.77,1.92,1.92,0,0,1,.42,1c0.06,4.84,3.55,8.43,4.65,12.89,0.15,0.62.69,1.17,0.14,1.83-4.54-.14-9-0.79-13.53-1.25a26.83,26.83,0,0,1-6.17-.89,2.91,2.91,0,0,1-.93-1.89,161.6,161.6,0,0,1-3.56-20.33,2.23,2.23,0,0,1,.37-1.88q-0.15-2.21-.31-4.42c0-.47,0-1-0.64-1.09-0.34-4.5-.22-9-0.23-13.52a7.16,7.16,0,0,1,.56-3.3,25.75,25.75,0,0,0,.42-5.35Z" transform="translate(0 -6.12)"/><path class="o" d="M94,77.8c1.73-.47,3.43-1.08,5.27-0.55,1.36,0.39,1.85,1,1.2,2.49a27.49,27.49,0,0,1-3.93,5.77c-1.4,1.76-2.28,3.53-1.62,5.94a3.23,3.23,0,0,1-1.79,3.47C87.39,98,84,103.47,79.89,108.17a2.23,2.23,0,0,1-1,1A141.09,141.09,0,0,1,94,77.8Z" transform="translate(0 -6.12)"/><path class="p" d="M184.69,187.29l-13-4.52,1.14,2.31c-1.06.71-1.57-.28-2.06-0.8a5.11,5.11,0,0,0-3.34-1.82,6.48,6.48,0,0,1-2.33-.91c-4-2.14-8.18-4.12-11.88-6.86a10.63,10.63,0,0,1-1.63-1.39,3.81,3.81,0,0,0-2.53-1.54c-0.39,0-.86-0.18-0.73-0.78a2.46,2.46,0,0,1,1.7-.4c0.84,0,1.68,0,2.51,0,1-.08,2.57.23,2.77-1s-1.11-2.05-2.23-2.5a9.19,9.19,0,0,0-6.51-.07,2.56,2.56,0,0,1-3.49-1.18c-1-1.64-3-2.23-4-3.81-2-1.87-3-4.71-5.55-6.06a0.7,0.7,0,0,1-.38-0.57c3.37-2.22,4-5.66,4.34-9.34,0.49-5.82.55-5.8,5.9-8.17,1.7-.75,3.38-1.52,5.1-2.23a3.09,3.09,0,0,1,2.07-.42,1.28,1.28,0,0,1,.6.38c1.86,2.78,4.92,4.12,7.35,6.21,1.5,1.3,2.67,3.09,5,3.23a2.25,2.25,0,0,1,1.23,1,2.7,2.7,0,0,0,1.24,1c2,0.45,3.88,1.57,5.83,2.09a59.51,59.51,0,0,0,17,1.95,61.44,61.44,0,0,0,13.64-1.92c1.91-.5,3.61-1.79,5.72-1.85a1.63,1.63,0,0,0,1-.73,5,5,0,0,1,3.86-2,1.65,1.65,0,0,0,1.36-.78,12.26,12.26,0,0,1,4.34-4c3.63-2,5.88-5.15,8-8.51,0.86-1.36,2.1-2.51,2.92-3.81,1.21-1.91,2.76-3.94,3.28-6,0.81-3.19,2.14-6.22,2.77-9.45a47,47,0,0,0,.83-13.74,20.43,20.43,0,0,1,0-3.59,11.16,11.16,0,0,0-1.61-6.36,13.76,13.76,0,0,1-1.51-3.82A7.29,7.29,0,0,0,232,81.63,7.87,7.87,0,0,1,230.62,78a2.51,2.51,0,0,1,.86-2.57,13.2,13.2,0,0,0,4.69-5.49,2.34,2.34,0,0,1,1.67-1.24c3.49-1,7-2.08,10.41-3.23a1.87,1.87,0,0,1,1.72,0c2.65,3.85,5.73,7.37,8.18,11.38a81.23,81.23,0,0,1,7.7,17.76c1.35,4.22,1.47,8.57,2.19,12.85a69,69,0,0,1,.71,8.38,49.8,49.8,0,0,1-1.75,13.5,57.75,57.75,0,0,1-2.48,9.29c-1.43,3.42-2.61,6.93-4,10.36-0.44,1.1-1.72,1.76-2.45,2.79a13.33,13.33,0,0,0-1.43,2.06,31.06,31.06,0,0,1-7.08,9.4,5.92,5.92,0,0,0-1.3,1.71,6.17,6.17,0,0,1-3,3,6.88,6.88,0,0,0-2.09,1.68,38.32,38.32,0,0,1-8.5,6.53A91,91,0,0,1,223.62,182c-2.08.92-4.39,1.43-6.53,2.26-2.92,1.12-6,1.46-9,2.35a16.38,16.38,0,0,1-3.88.69,128.29,128.29,0,0,1-12.92.47C189.1,187.62,186.92,187,184.69,187.29Z" transform="translate(0 -6.12)"/><path class="q" d="M57.29,201.26c4.5,0.64,9,1.29,13.51,1.9,10.27,1.4,20.59,2.36,30.93,3.15,16.32,1.25,32.66,2,49,2.42,14.56,0.39,29.13.63,44.07,0.48L184.54,193l61.87,22.5-59.3,26.95-0.35-.23,8.68-16.48h-1.87c-13.25-.15-26.5-0.2-39.75-0.49-18.93-.42-37.86-1.23-56.74-2.77C80,221,63,219.2,46.17,215.7c-1.22-.26-2.44-0.55-3.66-0.83-1.09-.66-0.31-1.15.17-1.64,2.79-2.79,5.87-5.26,8.81-7.88,1.34-1.19,2.68-2.38,4.11-3.46C56.08,201.52,56.5,200.85,57.29,201.26Z" transform="translate(0 -6.12)"/><path class="r" d="M184.69,187.29c1.49-1.42,3.27-.5,4.77-0.3a37.63,37.63,0,0,0,8.71.13c2.55-.25,5.11-0.07,7.66-0.52a23.81,23.81,0,0,0,3.77-.94c2-.71,4-0.71,6-1.41,2.15-.76,4.18-2,6.63-2.21a5.84,5.84,0,0,0,3.77-1.76c0.74-.84,1.84-0.8,2.71-1.28,4.46-2.46,9-4.81,12.75-8.33a25.7,25.7,0,0,1,5.08-4.13c1-.57,1-2.07,1.85-2.8a45.07,45.07,0,0,0,5.64-6.42,13.28,13.28,0,0,0,1.66-2.7,11.15,11.15,0,0,1,4.25-5.34c0.72-.42.26-1.24,0.54-1.89,1.46-3.35,2.78-6.78,3.91-10.25,0.56-1.73.45-3.86,1.17-5.34,1.15-2.35,1.16-4.78,1.75-7.16a34,34,0,0,0,.7-13.86c-0.61-3.56-.73-7.16-1.45-10.72a76,76,0,0,0-7.26-20.24c-2.38-4.57-5.61-8.57-8.75-12.62a2.56,2.56,0,0,1-.74-1.75,1.32,1.32,0,0,1,1.11-1,72.07,72.07,0,0,0,9-3.88,1.67,1.67,0,0,1,1.37-.2c1.19,1.5,3,2.31,4.1,3.93-1.26,1.11-2.95,1.14-4.42,1.7-2.42.92-2.45,0.85-1.68,3.23,0.07,0.23.15,0.45,0.2,0.69,0.55,2.38.76,2.58,3.25,2.7a13.73,13.73,0,0,0,6.67-1,1.66,1.66,0,0,1,1.22-.15,27.42,27.42,0,0,1,6.23,9.32,6.91,6.91,0,0,0,.81,1.58c1,1.34.86,1.93-.51,3.16-2.42.48-3.82,2.4-5.22,4.09-0.87,1.05.12,2.27,1.1,3.06a7.63,7.63,0,0,0,3.16,1.22,9.12,9.12,0,0,1,4.25,1.81,2.08,2.08,0,0,1,.71,2.7c-1.1,2.14-.54,4.06.78,5.88a14.06,14.06,0,0,1,2.6,4.68c0.44,1.7.15,2.16-1.6,2.37-2.19.26-4.24,1.31-6.51,1.19a1.35,1.35,0,0,0-1.14.78,18,18,0,0,0-2.69,13.41,2.66,2.66,0,0,0,1.79,2A10.09,10.09,0,0,0,286.63,126a2.22,2.22,0,0,1,1.71-1.15,8.11,8.11,0,0,1,.91,7.06c-1.22,1.09-2.78.81-4.22,1a1.71,1.71,0,0,1-.89-0.07c-3.73-1.56-6.41.12-9.05,2.62-5,4.75-9.94,9.52-13.65,15.42a49.08,49.08,0,0,0-7.53,23c-0.16,2.21-.17,4.43-0.36,6.63-0.42,4.65,1.73,8.22,4.54,11.52a29.87,29.87,0,0,0,16.22,9.72c0.58,0.14,1.4,0,1.53.93a40.34,40.34,0,0,0-4.52,3.88c-2.21,2-4.75,3.55-6.91,5.56-1.06,1-2.12,2-3.67,1.93-0.73,0-.69.8-1.24,0.86-0.88-.89-2.11-1-3.21-1.45q-35.39-12.93-70.79-25.82C185.21,187.56,185,187.41,184.69,187.29Z" transform="translate(0 -6.12)"/><path class="s" d="M218.87,233.68c0.15,0.18.31,0.35,0.46,0.54,2,2.52,1.95,2.5.19,5.18-3,4.6-4.25,9.84-5.28,15.13-0.85,4.4-1.61,8.82-2.41,13.23-0.11.63-.1,1.28-1,1.5-5.79,1.46-8.94,5.63-11.06,10.84-2.2.67-4.27,0-6.21-.89a19.09,19.09,0,0,0-3.16-1.11c-4.43-1.07-8.39-3.25-12.53-5-3.24-1.39-6.17-3.32-9.41-4.7-2-.85-3.78-2.45-5.67-3.7a99.79,99.79,0,0,1-12.94-10,119.66,119.66,0,0,1-13-14,72.74,72.74,0,0,1-6.44-9.25c-0.38-.68-0.06-0.77.43-1,2.34-1.13,4.8-.68,7.23-0.58,0.53,0,1.06.22,1.59,0.22,9,0,18.08.37,27.12,0.46,6.32,0.07,12.66.22,19.31,0.27-3.61,7.77-8,14.91-11.88,22.82,4.49-2,8.55-3.86,12.59-5.71q14.91-6.81,29.82-13.63A4.86,4.86,0,0,1,218.87,233.68Z" transform="translate(0 -6.12)"/><path class="t" d="M184.3,203.41c0.2,0.2.84,0.32,0.26,0.69a2.64,2.64,0,0,1-1.24.06c-4.74,0-9.49.24-14.21-.07-5.69-.38-11.38,0-17.05-0.34-6-.35-12.06-0.43-18.09-0.67a1.65,1.65,0,0,1-1.49-.4,1.55,1.55,0,0,1-.79-1.5,21.37,21.37,0,0,0-.32-2.13c-0.24-1.4-.93-2-2.38-1.58-2.11.55-4.29,0.29-6.44,0.33a2.84,2.84,0,0,1-2.53-1.41,22.11,22.11,0,0,1-3.12-7.4,4.41,4.41,0,0,0-3.19-3.59c-2.69-.9-5.33-2.17-6.86-4.86a30.52,30.52,0,0,1,0-11.26,41.1,41.1,0,0,0,6.71-4.12,8.31,8.31,0,0,1,4.58-1.41c2.8-.09,4.17,1.7,3.4,4.44a10,10,0,0,1-1.13,2.44c-0.53.87-1.09,1.73-1.56,2.63-0.89,1.7-.66,2.41,1,3.34a19.08,19.08,0,0,1,4.46,3,3.34,3.34,0,0,1,.92,3.9,17.83,17.83,0,0,0-1.27,5.23,2.07,2.07,0,0,0,1.36,2.25A10.39,10.39,0,0,0,135,191a33.94,33.94,0,0,0,4.76-2.89,19.88,19.88,0,0,1,3.33-2.13,4,4,0,0,1,3.78-.21,68.09,68.09,0,0,0,10.73,2.91,35.57,35.57,0,0,0,5,.2,2.39,2.39,0,0,1,2.27,1.14c3.08,5.32,8.09,8.15,13.5,10.48C180.39,201.41,182.65,201.79,184.3,203.41Z" transform="translate(0 -6.12)"/><path class="u" d="M70.26,151.95c0.73,0.68-.06,1.34,0,2,0.21,4.42-.38,8.86.34,13.27a1.42,1.42,0,0,1-.64,1.54c-9.66,2.49-19.32,5-28.59,8.71a86.27,86.27,0,0,0-14.9,7.39,1.07,1.07,0,0,1-1.65-.17c-4.15-4.39-5.48-9.4-3.47-15.2A3,3,0,0,1,23,167.81c9.91-5.28,20.51-8.78,31.25-11.86C59.56,154.43,64.88,153.07,70.26,151.95Z" transform="translate(0 -6.12)"/><path class="v" d="M152.62,278.31c-2-1.32-3.53-3.55-6.39-3.27a0.77,0.77,0,0,1-.9-1.12,1,1,0,0,0-.86-1.47c-1.68-.2-2.72-1.41-4-2.26-0.64-.42-1.19-1-2.1-0.63a1.14,1.14,0,0,1-.62-0.13c0.36-2-1.46-2.18-2.51-3-1.68-1.31-3.56-2.48-5.1-3.8-1.37-1.18-2.93-2.35-4.25-3.71a38.22,38.22,0,0,0-4.13-3.89c-0.88-.68-1.89-1-2.34-2.19a1.43,1.43,0,0,0-1.31-.83c-0.37,0-.89-0.13-0.84-0.5,0.27-1.91-1.35-2.24-2.38-3.15a34.22,34.22,0,0,1-2.84-3.51c-1.79-2-3.38-4.23-5.65-5.82a2.69,2.69,0,0,1-1.21-1.93c-0.12-1.36-.51-2.45-2-2.85a0.76,0.76,0,0,1-.44-0.51c-0.51-3.25-3-4.67-5.52-6.12L117.68,229c2,0.13,3.95.25,5.92,0.33a1.1,1.1,0,0,1,1.28.92c1.8,7.75,5.86,14.48,9.67,21.32,0.12,0.21.26,0.41,0.36,0.62,1.46,3.18,3.17,5.79,7.08,6.72,3.35,0.8,5.53,3.66,7.1,6.74A36.35,36.35,0,0,1,152.62,278.31Z" transform="translate(0 -6.12)"/><path class="r" d="M184.3,203.41c-5-2.07-10.18-3.78-14.55-7.13a19.44,19.44,0,0,1-5.1-5.73c-0.32-.56-0.52-1.17-1.4-1.12-5.93.37-11.46-1.43-16.95-3.33a3.07,3.07,0,0,0-3,.3c-2.08,0-3.46-1.21-4.93-2.54-5-4.54-8.66-10.2-12.61-15.59a16,16,0,0,1-1.21-2.4,1.08,1.08,0,0,1,.27-1.58c2.07-.32,4.16-0.48,6.19-1a1.39,1.39,0,0,1,1.78,1.08c0.48,1.37,1.37,2.53,1.93,3.85a1.9,1.9,0,0,0,2.11,1.26,33,33,0,0,1,9.46.76c0.74,0.18,1.57.16,2.07,0.89,2.94-.09,4.09,2.71,6.2,4,1.45,0.86,3,2,4.42,2.67,3.33,1.57,6.26,4.16,10.17,4.51,1.28,0.11,1.65,1.65,2.61,2.37a1.86,1.86,0,0,0,1.08.43q5.67,8.83,11.32,17.66A2,2,0,0,1,184.3,203.41Z" transform="translate(0 -6.12)"/><path class="w" d="M107.28,180.8a17.81,17.81,0,0,0,8.12,4.67,1.75,1.75,0,0,1,1.43,1.53,30.63,30.63,0,0,0,3.66,9.27,2.1,2.1,0,0,0,2,1.12c2.56-.07,5.15.15,7.63-0.69,0.79-.27,1,0.14,1.29.76,0.8,1.66.41,3.53,1,5.2a31.57,31.57,0,0,1-6.8,0c-10.16-.54-20.32-1-30.44-2a5.1,5.1,0,0,1-.52-0.1c-1.09-2.64-1.61-5.5-3.35-7.89A10.77,10.77,0,0,1,89.69,187a3.37,3.37,0,0,0-.52-1.86,7.72,7.72,0,0,1-1.5-4.68c-0.06-2-.73-3.91-0.87-5.89a2,2,0,0,1,1.8.54A13.94,13.94,0,0,0,94.16,177a10.77,10.77,0,0,0,5.32.09,5.27,5.27,0,0,1,5.57,1.38A8.2,8.2,0,0,1,107.28,180.8Z" transform="translate(0 -6.12)"/><path class="a" d="M70.88,174.28A158,158,0,0,0,74.7,196.8c0.13,0.52.21,1,.31,1.57-3.3.06-6.51-.67-9.74-1.15a189.79,189.79,0,0,1-23.09-4.61c-3.22-.89-6.39-2-9.57-3a3.14,3.14,0,0,1-1.88-1.2,35.36,35.36,0,0,1,7.05-3.82C47.8,180,58.36,177,69,174.31,69.6,174.17,70.25,173.72,70.88,174.28Z" transform="translate(0 -6.12)"/><path class="x" d="M12.27,202.71a17.18,17.18,0,0,1-7.11-12.95,15.89,15.89,0,0,1,3.5-10.51A28,28,0,0,1,14,173.72c0.67-.51,1.17-0.78,1.16.43-0.05,7.49,3.93,12.81,9.34,17.37-0.79,1.6-2.4,2.33-3.65,3.44C18,197.54,14.88,199.84,12.27,202.71Z" transform="translate(0 -6.12)"/><path class="y" d="M57.29,201.26c-2.31,1.3-4.11,3.24-6.11,4.91-2.84,2.37-5.5,5-8.26,7.43-0.44.39-.87,0.65-0.4,1.27A97.87,97.87,0,0,1,25.91,210c-0.19-1,.58-1.38,1.11-1.87,3.56-3.34,7.37-6.39,11-9.7a3.5,3.5,0,0,1,1.66-1c5.63,1.39,11.28,2.7,17,3.6A2.59,2.59,0,0,1,57.29,201.26Z" transform="translate(0 -6.12)"/><path class="z" d="M39.64,197.37c-2.51,2.25-5,4.5-7.52,6.76C30,206,27.65,207.66,25.91,210a40.14,40.14,0,0,1-13.64-7.25,2.07,2.07,0,0,1,1.07-1.95c3.84-2.95,7.22-6.44,11.18-9.24C29.3,194.17,34.48,195.75,39.64,197.37Z" transform="translate(0 -6.12)"/><path class="aa" d="M143.3,57a57.41,57.41,0,0,1-8.85-1.67,26.73,26.73,0,0,0-10.21.12c2.09-2,4.13-4.08,6.28-6A118.39,118.39,0,0,1,148.86,36c3.64-2.19,7.38-4.17,11.22-6A127.21,127.21,0,0,1,205.5,18a121,121,0,0,1,24.84.64,127.63,127.63,0,0,1,18.39,3.54A119.25,119.25,0,0,1,267.15,29a129.48,129.48,0,0,1,18.48,10.19,123,123,0,0,1,18.76,15.18c1,1,1.55,2.41,2.71,3.3-1.26,1.26-2.91,2.11-3.94,3.63A5.51,5.51,0,0,1,302,63.42c-3.44,4.52-4.8,9.8-5.67,15.27-0.2,1.28.43,1.74,1.57,1.83a13.77,13.77,0,0,0,2.67-.25,3.07,3.07,0,0,1,2.68.66,1.22,1.22,0,0,1,.42,1.29,0.84,0.84,0,0,1-1,.47,3.75,3.75,0,0,0-2.53.71,2.33,2.33,0,0,0-.92.85,7.7,7.7,0,0,0-.26,2.3,1,1,0,0,1-.73,1.09,0.88,0.88,0,0,1-.92-0.72c-1-3-3.08-5.48-4.5-8.3a45.38,45.38,0,0,0-4.37-6.57,88.92,88.92,0,0,0-10.28-12.19c-2.92-2.73-5.82-5.5-8.76-8.22a1.73,1.73,0,0,1-.9-1.46c1.73-3,3-3.66,6.59-3.19,0.77,0.1,1.22,0,.91-0.88s-1.2-1.85-.57-2.87c0.72-1.17,2.1-1.52,3.29-2.07a14,14,0,0,1,2-.54A11.49,11.49,0,0,0,277.4,39a37.47,37.47,0,0,0-13.83-1.51c-3.88.25-7.76,0.6-11.64,0.83a57.83,57.83,0,0,1-7.35.41,1.83,1.83,0,0,0-1.94,1.5c-0.64,1.73-1.57,3.24-3.52,3.79A1.82,1.82,0,0,1,237,42.31c0.17-1,1.1-1.35,1.64-2,0.32-.41.93-0.77,0.73-1.33s-1-.58-1.55-0.59a23.65,23.65,0,0,0-8.07,1.22,5.66,5.66,0,0,1-2.93.62c-1.95-1.5-4.41-1.74-6.59-2.67a3.45,3.45,0,0,1-.38-1.9c0-.64.07-1.43-0.85-1.53a1.74,1.74,0,0,0-2,1.07,3.49,3.49,0,0,1-.52,1.32c-2.17.49-4.27-.18-6.38-0.43A87.89,87.89,0,0,0,166,42.69c-7.69,3.38-15,7.45-21.23,13.25A4.15,4.15,0,0,1,143.3,57Z" transform="translate(0 -6.12)"/><path class="a" d="M275.83,202.7c-3.07-.95-6.21-1.68-9.09-3.21-5.83-3.11-10.41-7.41-13.05-13.57a5.13,5.13,0,0,1-.5-1.7c-0.61-13,1.7-25.27,9.53-36.07,4.51-6.22,10.14-11.31,16-16.22a1.72,1.72,0,0,1,1.81-.22,15.28,15.28,0,0,0,8.65.11,0.63,0.63,0,0,1,.25-0.25c5.51-1.46,10.72-4.21,16.66-3.89,2.49,0.13,3,.5,3,2.93,0.1,3.63.1,3.62,3.51,4.68a31.43,31.43,0,0,0,3.49.82c0.24,0,.46.15,0.69,0.18,3.52,0.46,3.5.46,4.46,3.94s2.35,6.53,2.89,10c0.69,4.42,2.26,8.7,1.89,13.28a12.65,12.65,0,0,0,.53,5,5.7,5.7,0,0,1,.05,3.38c-0.89,2.83-.58,5.71-0.58,8.57a32.17,32.17,0,0,1-1.11,8.7,82.76,82.76,0,0,0-1.87,8.74,34.93,34.93,0,0,1-1.44,4.06,69.92,69.92,0,0,1-7.71,17.71c-0.9,1.43-1.16,3.15-2.12,4.55-1.27,1.86-1.62,1.9-3.18.16a48.28,48.28,0,0,0-3.58-5.14,2.63,2.63,0,0,1-.36-2.22,15.12,15.12,0,0,1,1.47-5,6.76,6.76,0,0,0,.72-3.46c-0.26-2.69-1-3.37-3.63-3.37a7.83,7.83,0,0,0-1.26,0c-1.59.26-2.45-.2-2.4-2a4.07,4.07,0,0,0-1.3-2.88,1.66,1.66,0,0,0-2.18-.59,32.27,32.27,0,0,1-19.34,3A7.28,7.28,0,0,0,275.83,202.7Z" transform="translate(0 -6.12)"/><path class="ab" d="M360.85,158.38a53.93,53.93,0,0,1-5.42-11.09c-0.34-.91-0.63-1.21-1.45-0.68s-1.58,0-2.53-.2a81.85,81.85,0,0,0,6.11,11.75,98.06,98.06,0,0,1,5,8.87,2.63,2.63,0,0,0-.4,1.54c0.26,4.13-.23,8.25-0.41,12.37a120.58,120.58,0,0,1-1.88,14.87,133.62,133.62,0,0,1-5.08,19.72,136.07,136.07,0,0,1-9.65,21.79,133.3,133.3,0,0,1-10.9,16.83c-2.26,3-4.64,5.91-7.15,8.72a134.5,134.5,0,0,1-10.68,10.62c-0.67.6-1.25,1.59-2.42,0.86-0.38-2.39-.74-4.79-1.13-7.18a40.48,40.48,0,0,0-3-10c2.24-2.88,4.73-5.55,7.13-8.3a115.07,115.07,0,0,0,18-28.66,118.16,118.16,0,0,0,8.77-29.94,89,89,0,0,0,1.37-13.93c0-7.5,0-15-1.12-22.4-0.69-4.57-1.83-9-2.77-13.57a1.62,1.62,0,0,0-1.13-1.28c-0.36-.13-0.87-0.24-0.63-0.85a3.49,3.49,0,0,1,2.25-.4c2.15,0,4.31,0,6.46,0a2.69,2.69,0,0,0,2.82-2,6.9,6.9,0,0,0-.82-5.69c-0.5-.94-1.45-0.69-2.26-0.57a17.57,17.57,0,0,1-6.06.09,2.79,2.79,0,0,1-1.18-1.74,116.2,116.2,0,0,0-25.08-40.3c0.41-1.26,1.57-2,2.12-3.23,1.14-2.51,1.13-4.79-.64-7-1.18-1.49-2.39-3-3.53-4.5s-1-2.8.37-4a1.22,1.22,0,0,1,1.94-.07A125.25,125.25,0,0,1,336.4,91.13a136.34,136.34,0,0,1,12.15,20.2,142.27,142.27,0,0,1,9.32,25.33,159.74,159.74,0,0,1,3.52,18C361.57,155.86,362.05,157.3,360.85,158.38Z" transform="translate(0 -6.12)"/><path class="ac" d="M339.51,138.36c2,0,2.27,1.4,2.56,3,0.66,3.63,1.64,7.21,2.22,10.85a110.23,110.23,0,0,1,1.29,11.52c0.22,4.1,0,8.21.06,12.32a90.12,90.12,0,0,1-2,17.55c-0.61,3.28-1.32,6.54-2.18,9.76A110.29,110.29,0,0,1,337,216.74,121.46,121.46,0,0,1,326,237.67a107.3,107.3,0,0,1-11.82,15c-1.42,1.49-2.25,3.56-4.3,4.44a0.91,0.91,0,0,1-.08-1.28c5.26-9.66,3.88-19.3-.13-28.91-0.36-.87-0.75-1.74-1.12-2.61,2,1.11,2.29,1.09,3.3-1.33,2.16-5.15,5.24-9.84,7.31-15,0.7-1.76.89-3.68,1.69-5.43a39.71,39.71,0,0,0,2.57-9c1-5.1,2.63-10.14,2.07-15.49a13.66,13.66,0,0,1,.59-6.18c0.78-2.15-.69-4.3-0.63-6.5a42.53,42.53,0,0,0-1.19-11.69c-0.66-2.62-1-5.37-1.79-8s-1.74-4.9-2.3-7.46a1.8,1.8,0,0,0-2-1.41,2.67,2.67,0,0,1-2.07-.3c0.63-.74,1.5-0.57,2.3-0.58a23.75,23.75,0,0,0,6.09-.9c2.73-1.07,5.58-1.79,8.37-2.68,1.63-.52,2.67-0.18,2.95,1.35A5.42,5.42,0,0,0,339.51,138.36Z" transform="translate(0 -6.12)"/><path class="ad" d="M744.8,190.92c9.06-.05,18.12-0.08,27.18,0,1.68,0,2-.46,2-2.07q-0.07-50.4,0-100.79V85.87a2.84,2.84,0,0,1,.87,1.41q10.59,30.2,21.18,60.4,7.26,20.72,14.51,41.45c0.28,0.81.29,1.81,1.75,1.8,7.8-.09,15.6-0.05,23.4,0a1.33,1.33,0,0,0,1.51-1.13c0.56-1.83,1.24-3.62,1.86-5.43l32.94-95c0.53-1.53,1.11-3.05,1.66-4.58l0.4,0.08q0,0.85,0,1.69,0,51.3,0,102.59c0,1.31.19,1.84,1.7,1.82q13.77-.12,27.54,0c1.42,0,1.77-.37,1.77-1.78Q905,115.89,905,42.63c0-1.46-.33-1.9-1.85-1.9q-21.51.09-43,0a2,2,0,0,0-2.34,1.72q-13.4,41.74-26.91,83.44C829,131.93,827,138,825,144.36c-0.39-1-.61-1.44-0.78-1.95q-5.32-15.62-10.63-31.24-11.74-34.45-23.48-68.89A1.87,1.87,0,0,0,788,40.74q-21.6.08-43.2,0c-1.42,0-1.77.37-1.77,1.78q0.05,73.34,0,146.69C743,190.71,743.49,190.92,744.8,190.92Z" transform="translate(0 -6.12)"/><path class="ad" d="M1182.95,87.08c-4.5-15.6-13.09-28.26-27.2-36.76-11.34-6.84-23.84-9.45-36.91-9.52-21.17-.11-42.35,0-63.52-0.07-1.59,0-2,.38-2,2q0.08,36.53,0,73.06t0,73.24c0,1.59.39,1.94,2,1.94q31.67-.09,63.34,0a81.26,81.26,0,0,0,16.08-1.49c18.15-3.63,32.16-13.14,41.38-29.34,5.78-10.15,8.67-21.19,9.85-32.74C1187.34,113.73,1186.75,100.27,1182.95,87.08Zm-31.65,48.75c-4.57,17.53-17.22,27.21-35.32,27.33-9.3.06-18.6,0-27.89,0.05-1.46,0-1.76-.51-1.58-1.74a1.21,1.21,0,0,0,0-.18q0-22.67,0-45.35c0-15.18,0-30.35,0-45.53,0-1.55.44-1.85,1.89-1.83,9.11,0.16,18.24-.31,27.34.25,9.34,0.58,18,3.07,25.11,9.65A35.65,35.65,0,0,1,1151,96.7C1154.17,109.71,1154.69,122.81,1151.3,135.83Z" transform="translate(0 -6.12)"/><path class="q" d="M1038.07,190.93c1.47,0,1.61-.54,1.6-1.77,0-8-.07-16,0-23.94,0-1.59-.33-2.1-2-2.09-25.74.06-51.47,0-77.21,0.08-1.62,0-2-.44-2-2q0.1-16.56,0-33.12c0-1.65.42-2.06,2.07-2.06,23,0.06,46,0,68.93.07,1.48,0,2-.22,2-1.9-0.11-7.26-.1-14.52,0-21.78,0-1.59-.38-2-2-2-23,.06-46,0-68.93.07-1.58,0-2.12-.31-2.1-2q0.14-13.86,0-27.72c0-1.79.38-2.28,2.24-2.27,25,0.07,50,0,75.05.08,1.64,0,2.22-.26,2.19-2.09-0.12-7.92-.1-15.84,0-23.76,0-1.61-.35-2.07-2-2.07q-54.17.08-108.35,0c-1.7,0-2.2.35-2.19,2.13q0.1,36.45,0,72.89,0,36.63,0,73.25c0,1.16-.06,1.92,1.62,1.92Q982.55,190.85,1038.07,190.93Z" transform="translate(0 -6.12)"/><path class="q" d="M408.58,115.93q0,36.62,0,73.24c0,1.43.38,1.76,1.77,1.75q14.66-.09,29.33,0c1.57,0,2.1-.31,2.09-2-0.07-16.67,0-33.35-.09-50,0-1.69.49-2,2.08-2,11.28,0.07,22.55,0,33.83,0a64.83,64.83,0,0,0,16-1.87c15.33-3.85,26.44-12.67,31.8-27.81a53.75,53.75,0,0,0-.17-37.15c-4.26-11.77-12.39-20-24-24.79a59.05,59.05,0,0,0-22.59-4.35c-22.67-.07-45.35,0-68-0.08-1.83,0-2.09.56-2.09,2.2Q408.62,79.49,408.58,115.93Zm33.12-27c0-7,0-13.92,0-20.87,0-1,0-1.64,1.37-1.62,10,0.15,19.91-.2,29.86.23a36,36,0,0,1,10.89,2.08,17.6,17.6,0,0,1,12,14,31.52,31.52,0,0,1-.13,13c-1.88,8.38-7.64,12.63-15.62,14.42A50.5,50.5,0,0,1,469,111.33c-8.58,0-17.15,0-25.73,0-1.25,0-1.6-.3-1.59-1.57C441.73,102.83,441.69,95.87,441.69,88.91Z" transform="translate(0 -6.12)"/><path class="ae" d="M913.68,276.57H416.93c-0.48,0-1,0-1.44,0-6.84.35-11.06,6.6-8.41,12.6,1.68,3.81,4.75,5.41,8.9,5.41q124.55,0,249.09,0H913.27c0.78,0,1.56,0,2.34,0a8.81,8.81,0,0,0,8.19-7.29C924.78,281.07,920.53,276.57,913.68,276.57Z" transform="translate(0 -6.12)"/><path class="q" d="M640.24,185.18c9.83,6.3,20.76,8.68,33.31,8.71a65.52,65.52,0,0,0,12.56-1.28c17.71-3.7,30.91-13.28,37.93-30.2,6.89-16.58,6.85-33.55.57-50.28-5.27-14-15.22-23.77-29.32-29a65.22,65.22,0,0,0-41-1.44c-15.45,4.33-26.62,13.87-32.93,28.68-6,14.15-6.58,28.82-3,43.65C621.66,167.23,628.74,177.81,640.24,185.18Zm9.66-68.53c4.62-11.53,14.43-15.57,25.57-14.6,12.45,1.09,19.46,9.26,22.26,21.48a45.79,45.79,0,0,1,1,5.84,48.34,48.34,0,0,1,.42,6.46c-0.08,6.91-.73,12.83-2.77,18.54-4.18,11.69-13.48,17.72-25.82,16.8-10.4-.77-17.57-6-21.09-15.74A53.1,53.1,0,0,1,649.89,116.65Z" transform="translate(0 -6.12)"/><path class="q" d="M541.81,189.35c0,1.27.34,1.57,1.58,1.57,8.88-.06,17.75-0.07,26.63,0,1.47,0,1.73-.45,1.72-1.8q-0.07-23.39,0-46.78a56,56,0,0,1,1.48-13.54c2.54-10.24,8.16-17.75,18.79-20.6,6-1.61,12.13-1.35,18.19-.35,1.77,0.29,1.83-.25,1.82-1.65,0-7.5,0-15,0-22.49,0-3.74,0-3.74-3.71-4.15-8.53-.93-16.22,1.49-23.34,6a39.76,39.76,0,0,0-14.64,16.54c0-6.09,0-12.19,0-18.28,0-1.28-.37-1.58-1.6-1.57q-12.59.08-25.19,0c-1.29,0-1.71.26-1.71,1.66Q541.87,136.63,541.81,189.35Z" transform="translate(0 -6.12)"/><path class="ae" d="M1048.65,260.63c-0.5-8.44-4.52-14.6-12.66-17.73a32.36,32.36,0,0,0-8.18-1.87c-9.71-1-18.45,1.08-25.69,8a52.15,52.15,0,0,0-4.08,4.78c-1.92-5.17-5.19-9-10.16-10.8-11-4.07-21.4-2.86-30.86,4.39-2.3,1.76-4,4.07-6.17,6.23,0-3.16,0-6.31,0-9.47,0-1.09-.18-1.61-1.45-1.57q-4.68.14-9.36,0c-1.26,0-1.47.45-1.47,1.56q0,37.62,0,75.24c0,1.32.47,1.6,1.66,1.57,3.12-.07,6.24-0.11,9.36,0,1.57,0.06,2-.35,2-2-0.07-15,0-30,0-45,0-12.6,9-21.71,21.53-21.82,7.82-.07,12.65,4.21,13.76,12a69.21,69.21,0,0,1,.34,9.7c0,15,0,30,0,45,0,1.71.51,2.12,2.11,2.05,2.94-.12,5.88-0.11,8.82,0,1.58,0.06,2.12-.32,2.11-2-0.08-14.82-.06-29.64,0-44.46a42.5,42.5,0,0,1,.33-5.92,17.71,17.71,0,0,1,7.41-12.64c5.27-3.67,11.17-4.35,17.35-3.29,5.29,0.91,8.45,4.16,9.78,9.3a29,29,0,0,1,.78,7.31c0,16.56,0,33.12,0,49.68,0,1.71.51,2.12,2.11,2.06,2.88-.12,5.76-0.13,8.64,0,1.74,0.09,2.32-.31,2.3-2.21-0.1-13.8,0-27.6-.05-41.4C1048.76,271.78,1049,266.19,1048.65,260.63Z" transform="translate(0 -6.12)"/><path class="ae" d="M1131.45,313.88c0-3,0-3-2.94-2.67-3.34.42-4.7-.63-5-4-0.14-1.67-.24-3.35-0.24-5,0-13.56,0-27.11,0-40.67,0-9.64-5-16.31-14.26-18.9a55.1,55.1,0,0,0-27.38-.53c-12.43,2.83-19.94,10.76-20.88,23.44-0.11,1.44.34,1.57,1.51,1.55,3.24-.06,6.48-0.11,9.71,0,1.47,0.06,1.77-.52,1.9-1.81,0.64-6,3.82-10.11,9.67-11.85a33.82,33.82,0,0,1,17.93-.31c4.36,1.07,7.44,3.67,8.61,8.23,1.57,6.1-.62,10.09-6.61,11.86a50.79,50.79,0,0,1-7,1.47c-7.45,1.1-14.95,2-22.17,4.31-4.92,1.57-9.49,3.75-12.68,8-4.07,5.47-4.56,11.72-3.62,18.17a17.91,17.91,0,0,0,11.61,14.83c10.25,4.09,20.51,3.53,30.55-.91a33.17,33.17,0,0,0,10.92-8.31c0.11,1.28.14,2.12,0.27,2.94,0.59,3.88,2.32,7,6.27,8.22a18.29,18.29,0,0,0,12.81-.89,1.52,1.52,0,0,0,1-1.65C1131.41,317.61,1131.45,315.74,1131.45,313.88Zm-21.32-18.56c-0.67,6-4.5,10.09-9.69,12.8a28.91,28.91,0,0,1-19.88,2.51c-5.18-1.1-8.47-4.48-9.11-9-0.78-5.47,1.42-10.16,6.05-12.78,4.26-2.41,9-3.05,13.75-3.73s9.63-1.07,14.31-2.42a33.49,33.49,0,0,0,4.67-1.95C1110.24,285.77,1110.67,290.6,1110.14,295.33Z" transform="translate(0 -6.12)"/><path class="ae" d="M1184.73,258.76c0-14.76,0-29.52,0-44.27,0-1.44-.4-1.82-1.8-1.78-3.12.1-6.24,0.12-9.36,0-1.52-.06-1.87.41-1.86,1.89,0.05,17.34,0,34.67,0,52q0,26.28,0,52.55c0,1.39.34,1.86,1.78,1.81,3.06-.11,6.12-0.13,9.18,0,1.68,0.07,2.07-.47,2.06-2.1Q1184.68,288.82,1184.73,258.76Z" transform="translate(0 -6.12)"/><path class="ae" d="M1154.14,278.29c0-11.34,0-22.67,0-34,0-1.36-.36-1.74-1.7-1.7-3.18.1-6.36,0.11-9.53,0-1.52-.06-1.88.42-1.87,1.9,0.06,12.35,0,24.71,0,37.06,0,12.53,0,25.07,0,37.6,0,1.4.35,1.87,1.8,1.82,3.11-.11,6.24-0.14,9.35,0,1.64,0.07,2-.48,2-2C1154.11,305.4,1154.14,291.84,1154.14,278.29Z" transform="translate(0 -6.12)"/><path class="ae" d="M1142.48,228.6q5.12-.1,10.24,0c1.08,0,1.46-.29,1.44-1.41-0.06-4.37,0-8.74,0-13.12,0-1-.27-1.36-1.31-1.35-3.47.05-6.95,0.07-10.42,0-1.19,0-1.38.48-1.36,1.49,0.06,2.09,0,4.19,0,6.29s0,4.43,0,6.65C1141,228.2,1141.34,228.62,1142.48,228.6Z" transform="translate(0 -6.12)"/><path class="af" d="M299.55,83.27c1.14-.87,2.27-1.76,4-0.58-0.44-1.91-1.43-2.28-2.81-2.05a8.12,8.12,0,0,1-4.24.07,1.12,1.12,0,0,1-.88-1.47c0.89-3.85,1.55-7.77,3.24-11.41a24.92,24.92,0,0,1,4.3-6.58,24.27,24.27,0,0,1,9.37,7.2c0.74,1.07,0,1.82-.62,2.51a2.28,2.28,0,0,0-.55,2.91A18,18,0,0,1,313,82.95c-0.09,2.46-.78,3.45-3.23,4A10,10,0,0,0,304.91,89a1.63,1.63,0,0,1-1.44-.58c-1.37-1.32-2.37-3-3.87-4.21A0.67,0.67,0,0,1,299.55,83.27Z" transform="translate(0 -6.12)"/><path class="ag" d="M304.66,89a4,4,0,0,1,3.24-2.2c0.7-.15,1.41-0.25,2.1-0.4a2.81,2.81,0,0,0,2.56-3.06c0-3.39-.2-6.67-1.86-9.71a1.84,1.84,0,0,1,.54-2.66,2.71,2.71,0,0,0,1.29-2.56c0.51,0,1.12-.33,1.47.36-1.11,1.56-.89,2.91.44,4.29a36.85,36.85,0,0,1,2.91,3.6c2.81,3.75,2.28,7.3-1.6,10.81-0.37.91-1.28,1.08-2,1.49a29.57,29.57,0,0,1-7.4,1.17C305.67,89.95,304.45,90.56,304.66,89Z" transform="translate(0 -6.12)"/><path class="ah" d="M465.51,363.8c0-4.35,0-4.3-4.38-4.35a1.88,1.88,0,0,0-2.09,1.42c-1.64,4.3-3.35,8.57-5,12.85l-8.81,22.37c-0.3-.69-0.53-1.16-0.73-1.65q-6.19-15.57-12.37-31.15c-1.51-3.82-1.49-3.75-5.64-3.83-1.5,0-1.72.49-1.72,1.81,0,11.94,0,23.88,0,35.81,0,1.2,0,2.4,0,3.6a0.74,0.74,0,0,0,.54.95c2.32,0.64,3.41-.11,3.41-2.44v-33.1l0.32,0c0.26,0.59.53,1.17,0.76,1.76q6.38,16.08,12.74,32.17a2.18,2.18,0,0,0,2.45,1.69c1.39,0,2.22-.27,2.79-1.75,4.17-10.75,8.44-21.46,12.69-32.19,0.26-.65.54-1.29,0.82-1.94,0.26,11.44.29,22.78,0.22,34.11,0,1.49.47,1.84,1.81,1.71,1.11-.11,2.26.4,2.24-1.65C465.46,387.91,465.51,375.85,465.51,363.8Z" transform="translate(0 -6.12)"/><path class="ah" d="M984.56,359.67c-5.2-.35-10.43-0.11-15.64-0.2-1.22,0-1.15.66-1.15,1.49,0,13.08,0,26.15,0,39.23,0,1.28.48,1.48,1.56,1.46,2.52-.06,5,0,7.56,0v-0.19c2.64,0,5.29.19,7.91,0,6.84-.58,12.31-3.4,15.1-10.09,2.07-5,2.21-10.16,1.6-15.38C1000.29,365.94,994.54,360.33,984.56,359.67Zm12.58,27.11c-1.27,6.56-5.61,10.34-12.37,11.06-3.89.41-7.78,0.21-11.68,0.32-1.34,0-1.23-.73-1.23-1.6q0-8.1,0-16.19c0-5.28,0-10.56,0-15.83,0-1.28.38-1.64,1.63-1.58,3.77,0.17,7.54-.15,11.31.26,7.15,0.79,11.38,4.8,12.49,11.94A33.66,33.66,0,0,1,997.14,386.77Z" transform="translate(0 -6.12)"/><path class="ah" d="M868.56,372.42c0-2-1.37-1.13-2.24-1.27s-1.78-.1-1.6,1.32a24.29,24.29,0,0,1,0,3.13,1.12,1.12,0,0,1-.31,0,10.89,10.89,0,0,0-11.12-5.4,12.31,12.31,0,0,0-10.7,8.16,20.08,20.08,0,0,0,.41,15.9c3.38,7.7,14.29,8.66,19,4.33a16.12,16.12,0,0,0,2.67-3.43c0,2.32.16,4.24,0,6.12-0.4,3.8-1.62,7.2-5.68,8.58a12.3,12.3,0,0,1-7.94,0,6.8,6.8,0,0,1-4.58-4.45c-0.13-.38-0.08-1-0.59-1-1.07-.06-2.35-0.33-3.15.14s0.12,1.6.27,2.45a1,1,0,0,0,.08.16c1.61,4,5,5.74,8.94,6.26,9,1.2,16-1.76,16.4-12.45C868.77,391.49,868.44,382,868.56,372.42Zm-5.62,20.78A8.72,8.72,0,0,1,854.7,398a8.82,8.82,0,0,1-8.29-5.59,15.83,15.83,0,0,1,.23-13.72,8.68,8.68,0,0,1,8.64-5.29c3.86,0.1,6.47,2.18,8,5.63a16.75,16.75,0,0,1,1.44,6.8A14.85,14.85,0,0,1,862.94,393.2Z" transform="translate(0 -6.12)"/><path class="ah" d="M686.38,372.31a1,1,0,0,0-1.06-1.21c-2.66-.13-2.66-0.18-2.66,2.48,0,0.66,0,1.32,0,2.33-0.71-.9-1.19-1.6-1.76-2.22-5.49-6-16-4.2-19.83,3.49-2.5,5-2.46,10.16-.82,15.38,2.34,7.44,9.49,9.7,15.83,8.14,2.85-.7,4.8-2.7,6.51-5.48a30.8,30.8,0,0,1-.42,8.42c-1.64,6.76-10.93,9.42-16,4.62a3.77,3.77,0,0,1-1.42-2c-0.25-2.29-1.86-1.84-3.31-1.88-0.9,0-1.12.27-.94,1.17a8.94,8.94,0,0,0,4.6,6.32,16.66,16.66,0,0,0,9,1.83c7.33-.27,11.71-4.22,12.1-11.51C686.71,392.23,686.29,382.27,686.38,372.31Zm-4.89,19.58c-1.6,3.72-4.32,6-8.5,6.1a8.82,8.82,0,0,1-8.85-6.07c-2.12-5.55-1.91-11,2.13-15.68A8.88,8.88,0,0,1,680.71,378a16,16,0,0,1,1.91,8.14A13.76,13.76,0,0,1,681.48,391.89Z" transform="translate(0 -6.12)"/><path class="ai" d="M941.57,371.15c-0.95-.16-1.79-0.11-1.6,1.31a32.61,32.61,0,0,1,0,3.7c-5.06-8.7-17-7.26-21.11.22a18.68,18.68,0,0,0,.24,19.35c3.41,5.84,12.49,7.3,17.73,3.2a15,15,0,0,0,3.12-3.79,37.38,37.38,0,0,1-.35,7.9c-0.67,3.16-2.11,5.82-5.39,6.82-3.7,1.13-7.34,1.06-10.58-1.45a3.64,3.64,0,0,1-1.6-2.11c-0.28-2.18-1.76-1.94-3.27-2-1,0-1.22.38-1,1.29a9.11,9.11,0,0,0,5.32,6.59,18,18,0,0,0,12.28.86,10.07,10.07,0,0,0,7.51-7.47,16.68,16.68,0,0,0,.76-4.59c0-9.53,0-19.07.15-28.6C943.81,370.41,942.43,371.3,941.57,371.15Zm-3.81,22.74a9.19,9.19,0,0,1-14.89.59c-3.55-4.61-3.48-13.17.15-17.7,4.33-5.4,12.52-4.29,15.5,2.13A17.36,17.36,0,0,1,940,386,14.75,14.75,0,0,1,937.76,393.89Z" transform="translate(0 -6.12)"/><path class="ai" d="M219.19,371.07c-1.77-.07-2.36.46-2.09,2.17a21.17,21.17,0,0,1,0,2.8c-3.22-5-7.44-6.65-12.74-5.56s-8.44,4.49-9.93,9.53a20.74,20.74,0,0,0,.33,12.72c2.59,7.75,10,9.4,15.78,8,2.85-.7,4.83-2.68,6.52-5.52,0,3.41.24,6.37-.67,9.28a7.8,7.8,0,0,1-6.61,5.84c-3.59.53-7.1,0.3-9.79-2.67a2.83,2.83,0,0,1-.84-1.36c-0.21-2.05-1.59-1.91-3.1-1.94-1.3,0-1.32.47-1.09,1.49a9.13,9.13,0,0,0,5.27,6.42,17.64,17.64,0,0,0,9.84,1.34c5-.57,8.58-3.07,10-8.17a22.57,22.57,0,0,0,.77-6c0-8.82,0-17.64,0-26.46C220.92,371.59,220.66,371.12,219.19,371.07ZM215,393.78a9.09,9.09,0,0,1-15.64-.42,15.09,15.09,0,0,1,.3-15.74,9,9,0,0,1,15.66.55,16.57,16.57,0,0,1,1.84,8.06A13.8,13.8,0,0,1,215,393.78Z" transform="translate(0 -6.12)"/><path class="ah" d="M317.82,379.24c-0.2-5.91-3.75-9-9.62-9.07a10.68,10.68,0,0,0-10,5.5c-3.07-7.4-14.32-7.34-18.89.35a27.19,27.19,0,0,1,0-3.33c0.22-1.54-.63-1.6-1.79-1.57s-1.84-.09-1.82,1.51q0.14,13.67,0,27.34c0,1.62.67,1.69,1.88,1.67s2,0.12,2-1.61c-0.12-5-.05-10.07,0-15.11a15.05,15.05,0,0,1,1.51-7.3,8.33,8.33,0,0,1,9.16-4.08c3.17,0.76,4.67,3.1,4.68,7.31,0,6.36.07,12.71,0,19.07,0,1.77.82,1.69,2.06,1.72s1.89-.19,1.87-1.73c-0.09-5.75,0-11.51,0-17.27a10.79,10.79,0,0,1,1.89-6.27c2-2.78,4.83-3.3,8-2.88a5.48,5.48,0,0,1,5.06,4.38,15.36,15.36,0,0,1,.33,3.39c0,5.94,0,11.87,0,17.81,0,2.7,0,2.67,2.75,2.56,0.75,0,1.05-.17,1-1C317.89,393.51,318.06,386.36,317.82,379.24Z" transform="translate(0 -6.12)"/><path class="ah" d="M738.14,398.1c-7.26.09-14.51,0-21.77,0.07-1.31,0-1.89-.17-1.85-1.71,0.12-4.43.1-8.88,0-13.31,0-1.33.42-1.54,1.62-1.53,6.66,0.06,13.31,0,20,.06,1.47,0,1.91-.32,1.91-1.84s-0.47-1.77-1.84-1.76c-6.72.07-13.43,0-20.15,0.06-1.16,0-1.52-.28-1.5-1.48,0.07-4,.1-8,0-12.05,0-1.41.43-1.66,1.73-1.65,7.2,0.06,14.39,0,21.59.06,1.27,0,1.83-.19,1.72-1.63-0.09-1.18,0-1.93-1.65-1.91q-12.86.14-25.73,0c-1.52,0-1.75.53-1.73,1.85,0.06,6.36,0,12.71,0,19.07s0.05,13,0,19.43c0,1.54.45,1.87,1.91,1.86q12.86-.11,25.73,0c1.36,0,1.84-.29,1.8-1.74S739.63,398.08,738.14,398.1Z" transform="translate(0 -6.12)"/><path class="ah" d="M779.1,370.36c-5.14-.79-9.31.74-12.09,5.41-2.19-6.82-13.8-8.18-18.89.37a34.08,34.08,0,0,1,0-3.49c0.15-1.32-.39-1.63-1.6-1.54-1,.08-1.89-0.14-1.87,1.5,0.09,9.11.1,18.23,0,27.35,0,2,1.15,1.53,2.28,1.68,1.55,0.2,1.56-.63,1.56-1.78q-0.06-7.92,0-15.83a12.29,12.29,0,0,1,2.16-7.46,8.4,8.4,0,0,1,9-2.88c2.65,0.81,4.08,3.1,4.24,6.8,0,0.42,0,.84,0,1.26,0,6.12.08,12.24,0,18.35,0,2,1.2,1.37,2.2,1.51,1.28,0.19,1.6-.31,1.58-1.56-0.07-5.34,0-10.67,0-16a17.16,17.16,0,0,1,.69-5c1.26-4.22,4.69-6.32,9.15-5.64,3.8,0.58,5.52,2.89,5.58,7.5,0,1,0,2,0,3.06,0,5.46,0,10.92,0,16.37,0,1.08.42,1.47,1.34,1.22s2.44,0.91,2.44-1.05c0-7.37.32-14.75-.18-22.12C786.3,373.87,783.59,371.06,779.1,370.36Z" transform="translate(0 -6.12)"/><path class="q" d="M127.93,359.52c-5.94-.08-11.87,0-17.81-0.07-1.31,0-1.59.42-1.58,1.64,0.05,6.48,0,13,0,19.43s0.06,13.07,0,19.61c0,1.84,1.05,1.49,2.07,1.48s2.14,0.43,2.09-1.45c-0.12-5,0-10-.08-14.93,0-1.39.39-1.66,1.71-1.65,4.91,0,9.83,0,14.74-.15a10.25,10.25,0,0,0,8.69-4.65,13.16,13.16,0,0,0,.59-13.52C136.27,361,132.39,359.58,127.93,359.52Zm1.32,20.24c-5.23.83-10.53,0.22-15.8,0.37-0.66,0-.79-0.35-0.79-0.9,0-5.1,0-10.19,0-15.29,0-1,.57-1,1.27-1,2.28,0,4.56,0,7.27,0,2.37,0.17,5.2-.29,8,0.27,4.2,0.84,6.57,3.77,6.58,8.15C135.77,375.93,133.46,379.1,129.24,379.77Z" transform="translate(0 -6.12)"/><path class="ah" d="M1103.25,398.27c-2.86-.61-2.83-0.61-2.87-3.46-0.08-5.63.28-11.27-.19-16.9a7.7,7.7,0,0,0-5.76-7,17.48,17.48,0,0,0-6.94-.67c-5.94.49-9.48,3.26-10.37,8.16-0.11.63-1.21,1.81,0.45,2.11,2.28,0.41,2.92.08,3.18-1.52a6.13,6.13,0,0,1,2.44-4c2.63-2,8.42-2.09,11.13-.25a6.13,6.13,0,0,1,2.19,6.25c-0.49,2.16-2.24,2.42-4,2.68-0.65.1-1.31,0.14-2,.23-3.49.47-7,.66-10.33,2.12s-4.68,4.11-4.67,7.59,1.44,6.38,4.85,7.91a13,13,0,0,0,15.62-3.91,1,1,0,0,1,.74-0.68c0.7,4.11,2.38,5.34,6.11,4.65,1.3-.24.82-1.14,0.82-1.79C1103.69,399.24,1104.23,398.47,1103.25,398.27Zm-6.66-8.85a9.93,9.93,0,0,1-12.75,9.5,5.92,5.92,0,0,1-4.53-5.57c0-2.42,1.39-4.19,4.19-5.17,3.07-1.08,6.32-1.23,9.49-1.79a14.34,14.34,0,0,0,3.59-1.1C1096.59,386.79,1096.59,388.1,1096.59,389.42Z" transform="translate(0 -6.12)"/><path class="ah" d="M268.53,395.22c0-1.32,0-2.64,0-4-0.09-4.37.27-8.76-.2-13.12-0.44-4-2.52-6.36-6.45-7.44a18.86,18.86,0,0,0-6.06-.52c-6.09.33-9.81,3.34-10.71,8.65-0.1.57-.78,1.71,0.51,1.58,1.05-.11,2.8,1.15,3.14-1a6,6,0,0,1,2.9-4.71,11,11,0,0,1,10.51-.11c2,1,3,3.73,2.43,6.28-0.45,2.12-2.12,2.54-3.93,2.73-0.65.07-1.31,0.15-2,.24-3.43.48-6.92,0.64-10.16,2s-4.88,4-4.88,7.61,1.45,6.48,4.92,8a12.92,12.92,0,0,0,15.47-3.88,1.46,1.46,0,0,1,.85-0.84c0.36,3.45,1.12,4.46,3.55,4.74,3.42,0.4,3.55.27,3.28-3.19C268.9,398.41,268.54,398.06,268.53,395.22Zm-4-3.89c-0.77,5.94-8.61,9.87-13.94,7.06a5.52,5.52,0,0,1-3.2-5.22c0-2.4,1.42-3.84,3.52-4.73a32.85,32.85,0,0,1,8-1.75,18.93,18.93,0,0,0,5.62-1.36A47.78,47.78,0,0,1,264.57,391.33Z" transform="translate(0 -6.12)"/><path class="ah" d="M1138,374.9c-4.12,5.52-4.37,11.77-2.57,18.16,1.51,5.34,5.06,8.61,10.67,9.27,7.33,0.87,13-2,15-9.37,0.12-.45.48-0.92,0.06-1.33-0.69-.67-3.46.09-3.79,1-1.1,3.13-3,5.4-6.36,6.25-6.67,1.7-12.29-2.84-12.75-10.19-0.08-1.22.33-1.37,1.37-1.35,3.42,0.06,6.84,0,10.26,0s7,0,10.44,0c1,0,1.38-.21,1.33-1.28a21.66,21.66,0,0,0-2.28-9.52C1155.22,368.76,1143.39,367.75,1138,374.9Zm16.83,9.31h-15.47c-0.51,0-1,.16-1-0.76,0-3.75,3.68-8.68,7.42-9.73,5.06-1.42,9.88,1.5,11.56,7C1158.36,384.11,1158.29,384.21,1154.87,384.21Z" transform="translate(0 -6.12)"/><path class="ah" d="M1059.65,370.17c-6.91-.21-11.84,3.36-13.72,10A22.63,22.63,0,0,0,1046,393c1.6,5.38,5.11,8.74,10.8,9.39,7.53,0.85,13.06-2.17,15-9.58,0.1-.38.64-0.85-0.07-1.21a3.2,3.2,0,0,0-3.86,1.54,9.28,9.28,0,0,1-11.27,5.9c-4.23-1-7-4.71-7.63-10-0.15-1.27.06-1.67,1.4-1.64,3.42,0.09,6.83,0,10.25,0h6.3c6.13,0,6.13,0,4.82-6.13C1070.3,374.57,1065.72,370.36,1059.65,370.17Zm7.74,14c-2.94,0-5.88,0-8.82,0h-8.46c-0.59,0-1.26.14-1.11-.86,1-6.45,5.82-11.32,12.27-9.64,3.85,1,7.41,5.92,7.2,9.8C1068.43,384.45,1067.86,384.2,1067.39,384.2Z" transform="translate(0 -6.12)"/><path class="ai" d="M817.84,378.14c-2-4.83-5.64-7.67-11-7.95-5.72-.29-10.18,1.88-12.74,7.19a21.39,21.39,0,0,0-.88,16.1c1.58,5.07,5.08,8.22,10.44,8.85,7.58,0.89,13-2,15.16-9.38,0.12-.43.48-0.91,0-1.31-0.76-.65-3.44.11-3.78,1.07a9,9,0,0,1-6.9,6.35A10.37,10.37,0,0,1,796,388.16c0.09-1,.7-0.76,1.22-0.76,3.48,0,7,0,10.43,0s7.07,0,10.61,0c1,0,1.23-.27,1.19-1.21A23,23,0,0,0,817.84,378.14Zm-3.46,6.07h-8.81c-2.82,0-5.64,0-8.45,0-0.47,0-1.08.25-1.1-.7-0.08-4,3.88-9,7.91-9.88,6.31-1.43,11.08,3.64,11.57,9.7C815.57,384.25,815,384.22,814.38,384.22Z" transform="translate(0 -6.12)"/><path class="ah" d="M369.38,370.17A13.37,13.37,0,0,0,356,379.64a20.69,20.69,0,0,0-.61,11.34c1.36,6.43,5.8,10.59,12,11.43a13.58,13.58,0,0,0,14.25-7.27,19.86,19.86,0,0,0,1.71-12.59C382.18,375,376.72,370.2,369.38,370.17Zm7.4,25.62a9.76,9.76,0,0,1-15.08-.13c-4.1-5.08-4-14,.18-18.89a9.75,9.75,0,0,1,15,.14c2.27,2.78,3.06,6,3.07,9.88A14.11,14.11,0,0,1,376.78,395.79Z" transform="translate(0 -6.12)"/><path class="ah" d="M579,370.17c-7,0-11.9,3.56-13.92,10.2a20.1,20.1,0,0,0-.54,9.6c1,5.48,3.65,9.86,9.14,11.69s10.48,1.08,14.71-3c3.5-3.36,4.58-7.74,4.62-12.44a18.59,18.59,0,0,0-.78-5.68C590.3,374.08,585.33,370.2,579,370.17ZM586.75,395a9.8,9.8,0,0,1-16,.43c-3.81-4.92-3.66-13.7.3-18.49a9.65,9.65,0,0,1,7.52-3.55,9.83,9.83,0,0,1,8.32,4.6C590,382.67,590,390.29,586.75,395Z" transform="translate(0 -6.12)"/><path class="ai" d="M178.86,370.57c-5.52-1.21-10.64-.15-14.28,4.48-4.18,5.32-4.6,11.45-2.59,17.72a14,14,0,0,0,21,7.57c5-3.22,6.52-8.31,6.72-13.93a18.18,18.18,0,0,0-.71-5.52C187.52,375.61,184.37,371.78,178.86,370.57ZM183.38,395a9.77,9.77,0,0,1-15.49.84c-4.28-4.86-4.23-14.48.12-19.27a9.82,9.82,0,0,1,15.59,1.28c1.64,2.53,2.31,5.35,2.31,9.85A13.92,13.92,0,0,1,183.38,395Z" transform="translate(0 -6.12)"/><path class="ah" d="M487.43,370.2c-6.87-.7-12.52,3-14.83,9.62a19,19,0,0,0-1,6.52,18.12,18.12,0,0,0,.44,4.46c1.36,5.72,4.46,10,10.45,11.29s11.12-.1,14.79-5.21c3-4.21,3.53-9,2.83-14.05C499.11,375.8,494.23,370.89,487.43,370.2Zm6.42,25.11a9.79,9.79,0,0,1-15.54.3c-3.84-4.83-4-13.25-.29-18.19a9.41,9.41,0,0,1,9.09-4c4.16,0.48,6.8,3,8.33,6.77a14,14,0,0,1,1.09,6A14.39,14.39,0,0,1,493.86,395.31Z" transform="translate(0 -6.12)"/><path class="ai" d="M1122.7,384.87c-3-.57-6.15-1-9-2.4-1.7-.82-2.95-2-2.83-4.16a4.6,4.6,0,0,1,3.3-4.25,10.35,10.35,0,0,1,7-.19c2.12,0.68,4,2,4.24,4.2,0.27,2.39,1.69,1.92,3.12,2,0.9,0,1.16-.35,1-1.19-0.53-3.26-2-5.94-5.09-7.35a14.49,14.49,0,0,0-13.93.79c-2.74,1.61-3.74,4.25-3.49,7.37a6.85,6.85,0,0,0,4.51,6,31.87,31.87,0,0,0,6,1.8c2.33,0.52,4.72.87,6.84,2.08,2.77,1.58,3.46,5,1.29,7.14-2.82,2.82-6.38,3.12-10,2.23a7,7,0,0,1-5.79-6.3,0.84,0.84,0,0,0-1-.92c-0.66,0-1.32,0-2,0s-1,.14-0.88.92a12,12,0,0,0,2.84,6.47c2.6,2.73,6,3.32,9,3.46a17.7,17.7,0,0,0,6-.81c3.07-1,5.64-2.71,6.53-6.08C1131.81,390.34,1128.61,386,1122.7,384.87Z" transform="translate(0 -6.12)"/><path class="ai" d="M1036.64,386a15.88,15.88,0,0,0-3.58-1.15c-3.07-.73-6.27-1.06-9.11-2.57a4.11,4.11,0,0,1-2.51-3.84,4.43,4.43,0,0,1,2.75-4.1,10,10,0,0,1,9,.12,4.65,4.65,0,0,1,2.86,3.49c0.21,2.31,1.59,2.17,3.19,2.09,0.79,0,1-.31.91-1.11a9,9,0,0,0-2.27-5.36c-3.76-4.06-12-4.53-17-1.19-4.12,2.76-4.8,10.53.92,13.07a42.76,42.76,0,0,0,7.9,2.31c2,0.47,4.12.85,5.86,2.1a4.45,4.45,0,0,1,.56,7c-2.94,2.61-6.5,2.92-10.14,1.94a7.16,7.16,0,0,1-5.49-6c-0.4-2.19-2.12-1-3.18-1.07-1.29-.06-0.62,1.16-0.51,1.74,1.11,5.89,5.4,9,12.66,9a15.78,15.78,0,0,0,7.8-2.09,7.9,7.9,0,0,0,4-7.51A7.69,7.69,0,0,0,1036.64,386Z" transform="translate(0 -6.12)"/><path class="ai" d="M1185.38,386.27a14.34,14.34,0,0,0-4-1.41,46.06,46.06,0,0,1-8.31-2.17c-2.3-1-3.45-2.54-3.3-4.43,0.19-2.33,1.61-3.62,3.72-4.34,5.26-1.8,9.24.12,11.31,5.39,0.58,1.49,2,.54,3,0.64s0.72-.9.64-1.44a8.78,8.78,0,0,0-5.6-7.32,15,15,0,0,0-11,0c-3.9,1.4-5.69,3.88-5.7,7.59s1.46,5.78,5.61,7.34c1.06,0.4,2.16.68,3.25,1,2.59,0.71,5.3,1,7.77,2.12,1.8,0.83,3.1,2.08,3.18,4.19A4.93,4.93,0,0,1,1183,398a10.93,10.93,0,0,1-3.74,1.2c-5.12.85-9.42-1.65-10.37-6.2-0.48-2.32-2.14-1.25-3.22-1.23-1.39,0-.62,1.28-0.49,1.92,1.14,5.76,5.45,8.87,12.44,8.85a16,16,0,0,0,8-2.08A8.08,8.08,0,0,0,1185.38,386.27Z" transform="translate(0 -6.12)"/><path class="ah" d="M653.72,379.88c-0.07-3.19-1-6.17-4-8-5.43-3.47-13.17-1.72-16.89,4.22a33.53,33.53,0,0,1,0-3.53c0.21-1.75-1-1.39-1.94-1.39s-2-.35-2,1.39q0.12,13.77,0,27.54c0,1.57.72,1.61,1.84,1.55s2.11,0.33,2.07-1.5c-0.12-5.22,0-10.44,0-15.66a13.6,13.6,0,0,1,1.11-5.77,9.11,9.11,0,0,1,10.25-5.15c3.85,0.8,5.65,3.31,5.79,8.1,0,0.42,0,.84,0,1.26q0,8.1,0,16.2c0,2.77,0,2.74,2.79,2.55a0.87,0.87,0,0,0,1-1.06C653.77,393.68,653.88,386.78,653.72,379.88Z" transform="translate(0 -6.12)"/><path class="ah" d="M530.6,387.86a66.28,66.28,0,0,0-.28-9.33c-0.53-3.56-2.09-6.33-5.67-7.61-5.68-2-10.89-.47-15,4.72a21,21,0,0,1,0-2.88c0.26-1.65-.68-1.7-1.89-1.65s-2-.25-2,1.55q0.17,13.75,0,27.51c0,1.69.86,1.44,1.87,1.44s2.06,0.28,2-1.54c-0.14-5.33,0-10.67-.05-16a12.25,12.25,0,0,1,1.61-6.36,9.15,9.15,0,0,1,10.27-4.06c3.34,0.81,5,3.26,5.24,7.61,0,0.6,0,1.2,0,1.8,0,5.69.07,11.39,0,17.08,0,1.65.85,1.51,1.89,1.48s2.1,0.29,2-1.53C530.51,396,530.64,391.94,530.6,387.86Z" transform="translate(0 -6.12)"/><path class="ah" d="M911.1,380.39c-0.15-6.75-3.81-10.16-10.57-10.22a11.12,11.12,0,0,0-10.4,5.9,31.29,31.29,0,0,1,0-3.51c0.22-1.71-.91-1.41-1.9-1.43s-1.89-.16-1.87,1.48q0.13,13.76,0,27.52c0,1.66.87,1.47,1.9,1.49s1.94,0.13,1.9-1.5c-0.11-4.92,0-9.83,0-14.75a14.63,14.63,0,0,1,1.64-7.63,9.27,9.27,0,0,1,10.08-4.16c3.51,0.81,5.31,3.17,5.41,7.63,0.15,6.35.15,12.71,0.1,19.06,0,1.45.73,1.43,1.67,1.31s2.13,0.65,2.11-1.23C911.09,393.71,911.24,387,911.1,380.39Z" transform="translate(0 -6.12)"/><path class="aj" d="M353,359.66c-5.24-.63-9.49.17-9.74,7.42,0,1.25.38,2.84-.23,3.67-0.74,1-2.44.33-3.72,0.35a1.09,1.09,0,0,0-1.33,1.29c-0.07,1.42.21,2.17,1.81,1.87,0.52-.1,1.09.06,1.61,0,1.53-.23,1.88.41,1.87,1.88-0.07,8,0,16.06-.06,24.09,0,2.11,1.4,1.21,2.32,1.39,1.12,0.22,1.55-.17,1.52-1.41-0.08-4.07,0-8.15,0-12.22,0-3.06,0-6.11,0-9.17,0-1.48-.67-3.43.31-4.29,0.83-.73,2.73-0.23,4.16-0.27h0.18c1.49,0.24,1.23-.8,1.31-1.69,0.09-1.06-.2-1.54-1.37-1.45s-2.4,0-3.59,0c-0.63,0-1-.09-1-0.86,0.05-1.5,0-3,.1-4.49a3.16,3.16,0,0,1,3.12-3.11,11.58,11.58,0,0,1,2.32.11c0.53,0,1.39.41,1.21-.65C353.68,361.29,354.62,359.85,353,359.66Z" transform="translate(0 -6.12)"/><path class="ai" d="M558.61,398.68c-3.26.25-4.23-.63-4.24-3.92,0-5.82,0-11.63,0-17.45,0-3,0-3,3.13-3.05a12.87,12.87,0,0,1,1.8,0c1.08,0.15,1.21-.36,1.29-1.31,0.13-1.5-.34-2-1.85-1.85-1,.13-2,0-3.05,0a1,1,0,0,1-1.34-1.29c0.07-2.22,0-4.44,0-6.65,0-1-.3-1.33-1.32-1.34-2.54,0-2.54-.08-2.54,2.62,0,0.84,0,1.68,0,2.52,0,1.31.4,3-.26,3.83s-2.47.3-3.77,0.28c-1.08,0-1.22.42-1.28,1.37-0.09,1.41.35,2,1.79,1.79,0.71-.09,1.44.06,2.15,0,1.13-.13,1.41.33,1.39,1.42-0.07,3.36,0,6.72,0,10.07s0,6.6,0,9.89c0.06,4.46,1.42,5.91,5.82,6.24a32.11,32.11,0,0,0,3.4-.06,0.67,0.67,0,0,0,.79-0.5C561.11,399.48,560.44,398.54,558.61,398.68Z" transform="translate(0 -6.12)"/><path class="ak" d="M158.77,370.64a11.06,11.06,0,0,0-7.44,3.08,21.79,21.79,0,0,0-2.91,4.06c0-2-.1-3.51,0-5s-0.35-1.71-1.68-1.67-1.88.16-1.87,1.71q0.12,13.65,0,27.31c0,1.59.75,1.59,1.86,1.51s2.07,0.4,2-1.47c-0.15-5-.09-9.94,0-14.91,0.06-5.7,3.84-10.13,9.08-10.77,2.4-.29,2.33-0.29,2.28-2.69C160.06,370.73,159.62,370.61,158.77,370.64Z" transform="translate(0 -6.12)"/><path class="aj" d="M613.51,371.73c0.13-1.76-1.29-1.08-2-1-4.38.4-7.35,2.84-9.53,6.64a45.46,45.46,0,0,1,0-4.65c0.15-1.49-.5-1.64-1.73-1.61s-1.91,0-1.89,1.67q0.14,13.57,0,27.15c0,1.75.79,1.72,2,1.73s1.93-.07,1.89-1.69c-0.11-5.21-.14-10.43,0-15.64a10,10,0,0,1,9.54-9.83C614.38,374.42,613.42,372.84,613.51,371.73Z" transform="translate(0 -6.12)"/><path class="aj" d="M839.22,371.91c0.31-1-.29-1.35-1.29-1.28a11,11,0,0,0-9,5.13,3.75,3.75,0,0,1-1.21,1.67c0-1.66-.08-3.19,0-4.71,0.08-1.21-.21-1.75-1.54-1.61-1.06.11-2-.25-2,1.56q0.15,13.76,0,27.52c0,2.1,1.35,1.26,2.29,1.42s1.59-.07,1.57-1.37c-0.08-5,0-10,0-14.93,0-6.15,4-10.43,10.08-10.87C840.22,374.28,839,372.78,839.22,371.91Z" transform="translate(0 -6.12)"/><path class="ai" d="M404.23,371.72c0.14-1.61-1.16-1.07-1.89-1-4.37.35-7.4,2.69-9.73,6.48,0-1.67,0-3.33,0-5s-1.17-1-1.91-1-1.54-.36-1.54,1c0,9.47,0,18.94,0,28.41,0,0.34-.11.91,0.26,1a9.83,9.83,0,0,0,3,0c0.84-.18.46-1.12,0.47-1.71,0-5,0-10,0-14.92,0.08-5.69,4.18-10.25,9.58-10.39C405.05,374.43,404.13,372.85,404.23,371.72Z" transform="translate(0 -6.12)"/><path class="ai" d="M242.95,371.72c0.14-1.61-1.16-1.07-1.89-1-4.39.35-7.42,2.72-9.72,6.54,0-1.48-.11-3,0-4.44s-0.59-1.66-1.86-1.72c-1.45-.07-1.62.47-1.62,1.73,0.05,9,0,18,0,27,0,1.05-.17,2,1.49,1.83,1.2-.16,2.43.34,2.36-1.8-0.18-4.91-.11-9.84,0-14.75,0.09-5.88,4.1-10.42,9.58-10.59C243.77,374.42,242.85,372.86,242.95,371.72Z" transform="translate(0 -6.12)"/><path class="ak" d="M1009.45,371.13c-1.07,0-2.07-.28-2,1.54,0.15,4.61,0,9.22,0,13.83s0.1,9,0,13.48c-0.06,1.84.93,1.62,2.1,1.67s1.79-.08,1.78-1.58q-0.12-13.75,0-27.49C1011.34,370.89,1010.46,371.13,1009.45,371.13Z" transform="translate(0 -6.12)"/><path class="al" d="M539.33,371.13c-1,0-1.91-.21-1.86,1.46,0.13,4.61,0,9.22,0,13.84s0.08,9.11,0,13.66c0,1.53.62,1.65,1.79,1.56,1-.08,2.1.35,2.08-1.48q-0.13-13.75,0-27.49C541.37,370.83,540.38,371.14,539.33,371.13Z" transform="translate(0 -6.12)"/><path class="am" d="M877.35,371.14c-1-.07-1.82-0.18-1.78,1.38,0.11,4.61,0,9.22,0,13.84s0.06,9.23,0,13.84c0,1.48.7,1.54,1.75,1.44,0.89-.09,2.06.5,2.05-1.31q-0.1-13.93,0-27.85C879.39,370.65,878.26,371.2,877.35,371.14Z" transform="translate(0 -6.12)"/><path class="an" d="M622.1,372.57c0-1.89-1.11-1.37-2.09-1.44s-1.88-.07-1.84,1.52c0.12,4.55,0,9.11,0,13.67s0.09,9.12,0,13.67c-0.05,1.66.71,1.71,1.92,1.66s2,0.26,2-1.55Q622,386.33,622.1,372.57Z" transform="translate(0 -6.12)"/><path class="p" d="M220.32,37.46c2.38,0.32,4.8.54,6.52,2.55,0,0.86-.74,1-1.29,1.31A17.33,17.33,0,0,0,220.71,45a1.94,1.94,0,0,1-2.39.57,9.78,9.78,0,0,0-5.67-.09,3.42,3.42,0,0,0-1.59.79,1.15,1.15,0,0,0-.63,1.18,1.18,1.18,0,0,0,1,.6,21.42,21.42,0,0,0,7.86.31,37,37,0,0,0,16.47-5.77,1.43,1.43,0,0,1,1.48-.4,1.63,1.63,0,0,0,1.85,1.46c-0.16,1.46-1.84,1.65-2.35,2.82a1.84,1.84,0,0,0-.3.65c-0.39,5.1-3.25,9.06-6.11,13a41.05,41.05,0,0,0-4,7c-0.64.54,0.06,2-1.33,2-1.19,0-1.74-.91-2.29-1.77a2.6,2.6,0,0,0-1.08-1.17,10.64,10.64,0,0,1-3.7-3.05,9.21,9.21,0,0,0-4.27-4.46,10.89,10.89,0,0,1-2.06-1.44,1.6,1.6,0,0,1-.44-2.36,4.32,4.32,0,0,0,.52-0.94c0.6-1.62,0-2.49-1.74-2.19a10.9,10.9,0,0,1-4.46,0c-1.29-.3-2-0.94-1.46-2.29s0-1.62-1.26-1.41A6.2,6.2,0,0,1,198,46.69a3.36,3.36,0,0,0-3.7-.29c-6.63,3.11-13.53,5.56-20.4,8.07-0.66.24-1.48,0.4-1.53,1.31a2,2,0,0,0,1.32,1.76,10.65,10.65,0,0,1,2,1.18c0.53,0.49.32,1.06-.27,1-2.63-.5-4.86,1.23-7.39,1.17a2.61,2.61,0,0,1-1.15-.48c-2.42-1.91-5.29-2.36-8.23-2.58-3.51,0-7,.62-10.51.4-0.82-.05-1.69.11-2.36-0.56s-1.81,0-2.54-.67a13.14,13.14,0,0,1,3.31-3.42,99.81,99.81,0,0,1,16.48-10,86.94,86.94,0,0,1,23.49-7.37A72.65,72.65,0,0,1,203.35,35a124.51,124.51,0,0,1,13.14,1.39A22.09,22.09,0,0,1,220.32,37.46Z" transform="translate(0 -6.12)"/><path class="ao" d="M145.85,57.63c4.44,0.4,8.86-.52,13.3-0.3,0.08,1.15-.91,1.48-1.62,1.93a157.94,157.94,0,0,0-16.09,11.45,143.63,143.63,0,0,0-14,13.62,131.39,131.39,0,0,0-33,78.71,85.29,85.29,0,0,0-.09,13.27,1.4,1.4,0,0,1-.32,1.17c-2.72-.15-4.93-1.56-7.19-2.85a4.63,4.63,0,0,1-1.45-1.43c0.51-1.35-.06-2.7,0-4,0.26-4.46.48-8.91,1-13.36A141.3,141.3,0,0,1,94,123.32a131.52,131.52,0,0,1,10.75-22.64,119.79,119.79,0,0,1,10.15-14.95c2.93-3.59,5.95-7.11,9.1-10.53,5.07-5.5,10.83-10.2,16.57-14.92C142.07,59.05,143.5,57.33,145.85,57.63Z" transform="translate(0 -6.12)"/><path class="ap" d="M76.61,158c-2.4-1.9-3.3-7.26-1.76-10.88C76.46,150.75,75.93,154.4,76.61,158Z" transform="translate(0 -6.12)"/><path class="aq" d="M218.3,63c1.42,2,4.32,2.39,5.35,4.88a1.32,1.32,0,0,0,1.61.83c0.75-.25.09-0.8,0.17-1.21a0.66,0.66,0,0,1,.62-0.53,2.32,2.32,0,0,1,.52,2.16c-0.09,2.35,1.21,4,2.59,5.71,0.74,0.9,1.83.29,2.67,0.69a4.9,4.9,0,0,0,.43,5.65,6.32,6.32,0,0,1,1.5,3.2c0.28,2.32,1.93,4.05,2.61,6.22a9.93,9.93,0,0,1,.56,3c0,2.15.3,4.32,0.24,6.43-0.15,5.68.12,11.49-2.62,16.8a8.59,8.59,0,0,0-.52,2.07c-0.41,1.84,0,4.05-2.3,5a0.46,0.46,0,0,0-.2.29c-1.07,4.46-4.88,7.2-7,11.06a10.14,10.14,0,0,1-4.25,4.05,12.14,12.14,0,0,0-5.26,4.41,2.21,2.21,0,0,1-2.43,1.4c-1.56-.25-2.44.92-3.22,1.91a2.27,2.27,0,0,1-2.13,1,4.11,4.11,0,0,0-3.56,1.32c-0.6.7-1.46,0.4-2.2,0.56-5.84,1.28-11.78,2.26-17.72,1.6-3.33-.37-6.72-0.57-10.07-1.25-2.58-.52-4.55-2.71-7.34-2.31a1.51,1.51,0,0,1-.91-0.53c-1.33-1.25-2.62-2.43-4.65-2.58-1.15-.09-1.29-1.66-2.25-2.34-1.74-1.24-3.39-2.62-5.26-3.7-1.32-.76-1.68-2.4-2.83-3.34a0.6,0.6,0,0,1,.26-0.45c2.61-.79,3.45-3.13,4.58-5.21a49.09,49.09,0,0,1,13.13-16,33.3,33.3,0,0,1,8.19-4.44c1.17-.46,2.22-0.67,2.47,1.1a0.89,0.89,0,0,0,1.59.61c1.93-1.58,4.26-2.43,6.35-3.72a5.09,5.09,0,0,0,2.26-2.24c0.35-.85.12-1.36-0.92-1.41-3.76-.17-3.53-0.08-1.94-3.45,1.09-2.31,2-4.06,5-3.24a4.67,4.67,0,0,0,1.75-.34c0.59-.1,1.27-0.28,1.63.35s-0.2,1.09-.62,1.52c-0.08.09-.19,0.15-0.28,0.23-1.8,1.65-1.7,2.22.54,3,1.64,0.57,3.28,1.15,4.95,1.64A3.63,3.63,0,0,0,203.89,99a3.75,3.75,0,0,0-.36-1c-2.63-4.5-2.07-9.3-1.52-14.17A14.29,14.29,0,0,0,200.47,75a2,2,0,0,0-1.61-1.28c-1,0-1,.82-1.33,1.46a1.58,1.58,0,0,1-1.11,1.27c-0.72-.37-0.6-1.07-0.66-1.7a3.37,3.37,0,0,0-.3-1.87c-1.16-1-2.7-.78-4-1.25a11.34,11.34,0,0,0-2.11-.23,2.47,2.47,0,0,1-2-3.62c1.72-.95,3.48-1.82,5.26-2.66a2,2,0,0,1,2.82.68,7.21,7.21,0,0,0,2.93,2.3c2.21,1.19,4.6,2.05,6.49,3.77a1,1,0,0,0,1.58-.07c2.58-2.87,6-4.23,9.5-5.56,1.29-.5,2.23-1.09,2-2.67A0.55,0.55,0,0,1,218.3,63Z" transform="translate(0 -6.12)"/><path class="ar" d="M196.59,76.35c0.24-.66.49-1.32,0.72-2s0.34-1.24,1.23-1.26a1.89,1.89,0,0,1,1.85.81,11.14,11.14,0,0,1,1.89,4.77,31.85,31.85,0,0,1-.1,8.18c-0.44,3.18-.63,6.44,1.09,9.43a13.89,13.89,0,0,1,.88,2c0.57,1.47.75,2.89-.54,4.14s-2.51,2.32-4.55,1.39a53.48,53.48,0,0,0-5.43-1.85c-1.88-.62-2.08-1.63-0.65-3.07,0.6-.6,1.65-0.81,1.74-1.92-1-.28-1.76.37-2.64,0.42a4.23,4.23,0,0,1-1.75.14c-2-1-2.32.27-2.72,1.7a6.77,6.77,0,0,1-1.54,2.61,1,1,0,0,0-.5,1.06,1.07,1.07,0,0,0,1.25.46c0.59,0,1.18-.18,1.78-0.23,1.45-.12,2,0.67,1.4,2a7.37,7.37,0,0,1-3.56,3.18,21,21,0,0,0-5.63,3.46c-0.8.79-1.69,0.47-2.08-.63a8.61,8.61,0,0,1-.22-1.75,21.34,21.34,0,0,0-6.67,2.77c-5.58,3.21-9.76,7.87-13.25,13.19a47.46,47.46,0,0,0-3.28,5.56c-1,2.18-2.2,4.06-4.78,4.55-3.82,1.21-7.3,3.22-11,4.57a1.41,1.41,0,0,0-.82,1.44c-0.37,2.66-.67,5.33-1.11,8s-1.53,5-4.32,6.11c-1.83.8-2.88,0.38-3.45-1.39a5.64,5.64,0,0,1,.07-3.37c0.3-1,.73-2,1.09-3a1.28,1.28,0,0,0-.81-1.87c-3.21-1.2-6.41-2.19-9.65-.08a1.55,1.55,0,0,1-2,0,2.33,2.33,0,0,1-.71-2.14c0.65-2.54.65-5.26,2-7.61,1.44-2.58,2-5.49,3.22-8.19a89.53,89.53,0,0,1,7.56-14.47c1.91-2.81,3.52-5.81,5.7-8.47C141.65,98.18,147,91.45,154,86.23c1.81-1.35,3.2-3.23,5.5-3.94a2.78,2.78,0,0,1,2.23,0c3,3.06,6.79,3.5,10.78,3.32a2.59,2.59,0,0,0,2.4-1.32c1.48-2.89,3.86-5,6.1-7.24a31.74,31.74,0,0,0,3.27-3.32c1.88-2.56,4.33-3.07,7.23-2.46,1.5,0.39,3.14.28,4.5,1.21,0,1,0,2.09,0,3.13C196.07,75.92,195.85,76.49,196.59,76.35Z" transform="translate(0 -6.12)"/><path class="as" d="M231.83,75.54c-1.52.86-2.51,0.28-3.59-1A9.58,9.58,0,0,1,226.05,67c1.29-4.16,4.26-7.31,6.54-10.88,1.69-2.65,3.18-5.36,3.24-8.62a1.66,1.66,0,0,1,.73-1.36c2.23-.5,4.41,0,6.56.42,5,1,10.1,1.85,15.09,3.08,1.51,0.37,2.95,1,4.43,1.42a3.66,3.66,0,0,1,2.67,2.63c1.82,3.64,1.65,4.17-1.94,6.14a3,3,0,0,1-2,.63c-3.77,1.84-7.65,3.42-11.53,5q-6,1.87-12.1,3.73a1.75,1.75,0,0,0-1.26,1.12A10.46,10.46,0,0,1,231.83,75.54Z" transform="translate(0 -6.12)"/><path class="r" d="M118.49,145.34c0.44,0.28.84,0.74,1.42,0.27,2.77-2.21,5.77-1.74,8.82-.75,3.36,1.09,3.35,1.08,2.1,4.35a8.75,8.75,0,0,0-.83,3.09c0,2.44.3,3.77,3.2,3.25a3.83,3.83,0,0,1,2.87,1.87c0.76,1.23,1.38,2.64,2.84,3.33a1,1,0,0,1,.39,1.12c-0.84.24-1.48-.3-2.17-0.59a15.52,15.52,0,0,0-6.16-1.63c-2.55,0-4.68.8-5.76,3.36a1.41,1.41,0,0,1-.93,1c-1.9-.74-2.34-2.7-3-4.21a85.25,85.25,0,0,1-4.82-13,1.83,1.83,0,0,1,.33-2C117.57,144.35,118,144.94,118.49,145.34Z" transform="translate(0 -6.12)"/><path class="at" d="M124.26,163.84c2.14-4.36,4.65-5.51,9.44-4.34a24.1,24.1,0,0,1,5.59,2.35c1.82,1.36,3.72,2.65,4.94,4.63,0.49,0.79,1,.38,1.52.2a11.54,11.54,0,0,1,7.06-.33,5,5,0,0,1,3.17,2.71c0.46,0.93.17,1.28-.69,1.55a21.79,21.79,0,0,1-7,.51c-4.22-.74-8.42-1.82-12.76-1a0.63,0.63,0,0,1-.83-0.45c-0.44-1.71-1.77-3-2.23-4.66-0.35-1.25-.88-1.59-2.1-1.15a16.5,16.5,0,0,1-5.83.72C124,164.54,124,164.26,124.26,163.84Z" transform="translate(0 -6.12)"/><path class="au" d="M159.46,173.19c-2.55,0-3.13-.81-2.28-2.92a5,5,0,0,1,1-1.65c1-1,2.31-1.8,3.83-1.32,0.88,0.28,1.63,3.66,1,4.65C162.15,173.36,160.57,173.1,159.46,173.19Z" transform="translate(0 -6.12)"/><path class="av" d="M288.36,124.85c-0.92.94-1.78,1.93-2.76,2.81-3.94,3.53-8.25,2.95-12.41,1.17a1.62,1.62,0,0,1-.88-1.27c-1.29-5.4,0-10.32,2.82-15a1,1,0,0,1,1.18-.57c2.59,0.46,4.84-1.29,7.4-1.14,0.73,0,.61-0.62.56-1.07a7.41,7.41,0,0,0-1.39-3.47c-0.69-1-1.4-1.95-2-3a4.24,4.24,0,0,1-.19-4.77c1.08-1.69.09-2.44-1.08-3.11a13.2,13.2,0,0,0-3.74-1.21c-1.78-.41-3.44-1-4.37-2.8a2.07,2.07,0,0,1,.4-2.74c1.2-1.16,2.7-2,3.61-3.47,0.5-.83,1.16.15,1.76,0.1,1.6,0.08,2.15,1.51,3.19,2.25-0.09-1.44,0-3.08-1.52-4.19a1,1,0,0,1-.33-1.44c1.17-2,2.17-4.16,4.67-4.95,1.7-.53,2.26-0.3,2.84,1.36,0.7,2,1.05,4.17,1.87,6.18a13.35,13.35,0,0,0,3.28,4.87c1.66,1.55,1.56,3-.22,4.48a13.81,13.81,0,0,1-2,1.17,2.9,2.9,0,0,0-1.49,1.15c0.56,0.71,1.44.36,2,.81a6.07,6.07,0,0,0,2.72,2.86,21.49,21.49,0,0,1,3.78,3.49c1.56,1.62,2.37,3.82,4.32,5.17a2.35,2.35,0,0,1,.67,3.07,1.55,1.55,0,0,1-.73.76c-4.19,1.87-6.58,5.51-9.06,9.1C290.36,122.72,289.81,124.18,288.36,124.85Z" transform="translate(0 -6.12)"/><path class="aw" d="M289.46,97.18c-1.07.07-2.54,0.26-2.83-.8-0.23-.82,1.3-1.16,2.11-1.6a10.39,10.39,0,0,0,2.3-1.35c1.3-1.24,1.28-2.36-.09-3.51-2.4-2-3.43-4.82-4.32-7.68a31.81,31.81,0,0,1-1-4c-0.21-1.2-.77-1.21-1.76-1-2.72.68-3.67,3.05-5,5.06-0.15.22-.21,0.5,0.07,0.59,2.69,0.9,1.4,3.33,1.78,5.27l-3.44-2.81c0.77-1.05,1.17-1.94-.16-3-1-.81-0.93-2.35-1.53-3.52a45,45,0,0,0-4.29-6.13,2.06,2.06,0,0,1-.51-1.12,2,2,0,0,1,.62-1.43,5.51,5.51,0,0,0,.94-2.11c0.56-2.61-.07-3.36-2.71-3.46-1.39-.05-2.86.4-4.17-0.45-1.6-.95-3.32-1.77-4-3.69,1-.59,2-1.17,3.05-1.77,2-1.17,2.13-1.88.92-3.87-0.15-.25-0.28-0.52-0.43-0.78a1,1,0,0,1,.22-1.3c1.25-.63,2.06-1.9,3.46-2.28a108.71,108.71,0,0,1,29.47,37.12c0.8-1.33,0-2.64.68-3.67,1.09,2.09.54,4.29,0.35,6.45a1.1,1.1,0,0,1-1.08.82c-2,.36-3.36,1.69-4.63,3.18C292.33,95.61,291.41,97.14,289.46,97.18Z" transform="translate(0 -6.12)"/><path class="ax" d="M288.36,124.85c2-2.89,3.92-5.87,6.19-8.58a17.2,17.2,0,0,1,6.11-4.58,4.83,4.83,0,0,1,5.8,0,11.93,11.93,0,0,1,5,8.92c0.12,1.37.43,2.72,0.41,4.1,0,1.17.58,1.31,1.5,0.84a5.13,5.13,0,0,0,1.7-1.57,16,16,0,0,1,2.23-2.57c2.28-2,4.75-1.37,5.92,1.39a10.92,10.92,0,0,1,.61,4.4c-1,2-1.29,6.79.9,8.16-2.79,1.15-5.73,1.13-8.67,1.13a24,24,0,0,1-6.36-1.69,1.55,1.55,0,0,1-1.21-1.85,11,11,0,0,0,0-1.61c0-3.28,0-3.29-3.3-3.32a28.35,28.35,0,0,0-8.71,1.75,35.66,35.66,0,0,1-7.38,2,1.16,1.16,0,0,1-.23-1.61,2.25,2.25,0,0,0-.25-3.2C288,126.29,288.28,125.59,288.36,124.85Z" transform="translate(0 -6.12)"/><path class="ay" d="M265.4,64.14a31.35,31.35,0,0,1,5.87,0A1.68,1.68,0,0,1,272.94,66a6.71,6.71,0,0,1-2.22,5.57,14.72,14.72,0,0,1-10.11,1.17c-1-.19-1.67-0.43-1.45-1.68a5.15,5.15,0,0,0-.79-2.9c-0.5-1.16-.27-1.87,1-2.23C261.42,65.41,263.4,64.75,265.4,64.14Z" transform="translate(0 -6.12)"/><path class="az" d="M94,177.47a48.51,48.51,0,0,1-.29-11.63,171.59,171.59,0,0,1,2.2-18.59,120.77,120.77,0,0,1,4.31-16.58c3-9.09,6.62-17.95,11.79-26.07,2.24-3.53,4.41-7.11,6.83-10.52a92.66,92.66,0,0,1,7.18-8.9c1.89-2.07,3.57-4.36,5.62-6.25A177.77,177.77,0,0,1,145.4,67c4-3,8.32-5.58,12.42-8.45a3.64,3.64,0,0,0,1.31-1.18,14.35,14.35,0,0,1,9,3.23c0.08,1-.83,1.24-1.46,1.59A112.34,112.34,0,0,0,155.5,69c-5.17,3.77-10.39,7.46-15,12a141.51,141.51,0,0,0-10.63,11.16A134.38,134.38,0,0,0,117.47,110c-6.25,10.84-10.37,22.49-13.46,34.55-0.49,1.91-.6,3.91-1.11,5.82a4,4,0,0,0,.25,1.75c-0.38,1.32-1.17,2.47-1.58,3.78a12.5,12.5,0,0,0-.14,7.89,7,7,0,0,0,4,4.09c0.7,0.31,1.7.32,1.9,1.37a1.36,1.36,0,0,0-.39,1.3c0.1,3.43-.29,6.88.32,10.29-1.38-1-2.77-2-4.14-3a2.47,2.47,0,0,0-2.3-.4A13.09,13.09,0,0,1,94,177.47Z" transform="translate(0 -6.12)"/><path class="ba" d="M107.35,169.21a0.38,0.38,0,0,0-.12-0.13c-7.47-2.17-8.09-8.77-5.67-14.42,0.4-.93.88-1.83,1.32-2.74a1.28,1.28,0,0,1,.17-1.2c2.64-3.88,7-7.14,12.14-6.77a1.87,1.87,0,0,1,1.83.89c-0.8,1.86.4,3.45,0.88,5.06a70.83,70.83,0,0,0,3.56,9.29,15,15,0,0,0,2.79,4.65,0.74,0.74,0,0,0,.33.72c0.54,2.8,2.61,4.73,4.07,7a75.52,75.52,0,0,0,10.28,12.32c1.3,1.3,2.89,1.7,4.33,2.52-2.72,1.54-5.12,3.59-7.91,5-3.82,2-7.45,1.51-11.08-.42a1.51,1.51,0,0,1-.89-1.7,17.19,17.19,0,0,1,1.45-6.07,2.57,2.57,0,0,0-.73-3.17,15.31,15.31,0,0,0-5.1-3.28c-1.44-.64-1.59-1.53-1.06-2.84a20.84,20.84,0,0,1,1.79-3.11c0.32-.51.64-1,0.93-1.53a4,4,0,0,0-.11-4.57c-0.86-1.08-2.35-.54-3.55-0.38a11.11,11.11,0,0,0-5,2.38C110.6,167.77,109.25,169,107.35,169.21Z" transform="translate(0 -6.12)"/><path class="bb" d="M323.59,127.46c-0.18-1.3-.25-2.63-0.55-3.9-0.72-3.05-3.43-3.79-5.68-1.58a18.77,18.77,0,0,0-1.66,2.11,6.14,6.14,0,0,1-2.35,2.16c-1.58.68-1.94,0.43-2-1.31a24.2,24.2,0,0,0-1-7.44,11,11,0,0,0-5-5.93c-1.58-1-3.14,0-4.71.13a3,3,0,0,0-1.55-3.57c-1.66-1-2.05-3.14-3.5-4.43s-2.7-3.14-4.69-3.94a2.28,2.28,0,0,1-1.46-2.58,12.67,12.67,0,0,0,3.36-2.9c1.43-1.69,2.86-3.41,5.33-3.59,0.84-.06.63-0.74,0.63-1.23,0-1.85,0-3.7,0-5.56a1.08,1.08,0,0,1,.8-0.64L304.66,89c0.2,1.18,1.19.35,1.73,0.68,2.31,2.16,4.57,4.36,6.68,6.73s3.88,5.43,5.91,8.09c0.43,0.56.66,1.29,1.15,1.82,3.14,3.45,4.8,7.83,7.34,11.65a4.22,4.22,0,0,1,.79,2.53,1.82,1.82,0,0,0,.35,1.68c1.28,1.59,2.05,3.49,3.18,5.18-1.24,2-4.64,3.33-6.72,2.53C324,129.52,323.21,128.8,323.59,127.46Z" transform="translate(0 -6.12)"/><path class="bc" d="M268.6,50.46a7.16,7.16,0,0,1-2.83,2.24,1.25,1.25,0,0,0-.85,1.34c-0.19-1.72-1.52-2.29-2.88-2.72a133.53,133.53,0,0,0-14.76-3.44c-3.56-.68-7.14-1.23-10.72-1.75,0.54-1.15,1.89-1.47,2.57-2.48a5.9,5.9,0,0,0,3.22-4.28,1.23,1.23,0,0,1,1.45-1.16c6.89-.11,13.72-1.1,20.59-1.32,5-.16,10.05.08,14.74,2.32A9.48,9.48,0,0,1,281.78,41c-2.29-.1-4,1.09-5.76,1.9a0.92,0.92,0,0,0-.47,1.35c0.25,0.54.59,1,.83,1.58s0.68,1.25.1,1.83-1.11-.05-1.63-0.22c-1.78-.57-3.38-0.53-4.64,1.09C269.7,49.21,269.14,49.82,268.6,50.46Z" transform="translate(0 -6.12)"/><path class="bd" d="M237.28,42.18A37.56,37.56,0,0,1,214.89,49a25.24,25.24,0,0,1-4.25-.6c-1.43-.26-1.28-1-0.64-1.88a4.35,4.35,0,0,1,2.9-1.63c2-.37,4-0.63,5.94.38,0.4,0.21.7,0.43,1,0,1.79-2.44,4.44-3.74,6.94-5.23a29.14,29.14,0,0,1,10.46-2.13,11.86,11.86,0,0,1,3.23.5C239.82,40,238.48,41,237.28,42.18Z" transform="translate(0 -6.12)"/><path class="be" d="M220.32,37.46c-1.4.07-2.78,0.09-3.83-1.08-0.27-2.14.95-3.24,3.13-2.92a0.77,0.77,0,0,1,.74,1Q220.34,35.94,220.32,37.46Z" transform="translate(0 -6.12)"/><path class="bf" d="M323.59,127.46a2.57,2.57,0,0,0,3.28,2.16c1.83-.33,3.62-0.84,4.77-2.51-0.73-2.24-2.43-4-3.27-6.14,1.32-.79,2.71-0.49,4.09-0.26,0.75,0.45.63,1.23,0.73,1.92a6.24,6.24,0,0,0,4.38,5.59c1.29,0.68,2.89.15,4.11,1.1a24.24,24.24,0,0,0,7.48-.59,1.13,1.13,0,0,1,1.49.74,13.72,13.72,0,0,1,1.35,4.38,3.66,3.66,0,0,1-3.88,4.29c-2.87,0-5.74.15-8.61,0.22-0.58-.14-1.16-0.29-1.74-0.4-1.31-.25-2.23-0.76-1.94-2.36a3.15,3.15,0,0,0-.21-1.22c-0.51-2.05-.69-2.15-2.66-1.53l-8.17,2.56c-2.56-.34-1.81-2.54-2.12-4-0.2-1,.4-2,0-3.1A0.65,0.65,0,0,1,323.59,127.46Z" transform="translate(0 -6.12)"/><path class="bg" d="M341.68,129.33a7.79,7.79,0,0,1-4.36-.76,3.7,3.7,0,0,0-.37-3.38c-1.32-2.75-2.42-5.59-3.82-8.31A107.16,107.16,0,0,0,317.6,93.73c-1.2-1.33-2.1-2.91-3.41-4.16a0.86,0.86,0,0,1-.29-1.11l1.85-.94c1.2,0.17,1.79,1.19,2.46,2A108.29,108.29,0,0,1,326,99.25a144.93,144.93,0,0,1,8.77,14.11c2.61,5,4.71,10.11,6.87,15.26A2.35,2.35,0,0,1,341.68,129.33Z" transform="translate(0 -6.12)"/><path class="af" d="M313.9,88.45c2.86,3.42,5.92,6.7,8.52,10.31a126.12,126.12,0,0,1,11.1,17.87c1.53,3.1,2.64,6.39,4.38,9.38a1.63,1.63,0,0,1-.57,2.56c-3.29-1-4.68-3.23-4.64-7.6-1.47-.38-3-0.06-4.45-0.17l-0.24-.18A15.28,15.28,0,0,0,325,115a1.32,1.32,0,0,1-.24-0.26c-1.2-3.59-3.82-6.28-5.86-9.34-2.44-3.65-4.73-7.41-7.89-10.5-1.27-1.24-2.22-2.8-3.9-3.62a1.44,1.44,0,0,1-.75-1.52A35.22,35.22,0,0,0,313.9,88.45Z" transform="translate(0 -6.12)"/><path class="bh" d="M117,144.84c-3.86-1.33-7.21,0-10.1,2.39-1.56,1.28-3.26,2.64-4,4.68-0.7-.44-0.59-1-0.46-1.73a133.53,133.53,0,0,1,6.43-22.87A120.13,120.13,0,0,1,123.95,99.1a112.39,112.39,0,0,1,10.41-12.73,115.24,115.24,0,0,1,10.67-10c3.53-2.83,7.17-5.48,10.84-8.11s7.4-4.61,11.17-6.8a2.09,2.09,0,0,0,1.1-.88,25.38,25.38,0,0,0,2.94-.78,7.42,7.42,0,0,1,4.94-.23,5.36,5.36,0,0,0-2.4-1.45c-1.08-.55-1.93-1.23-1.87-2.58s1.25-1.17,2-1.44c7.18-2.64,14.4-5.21,21.31-8.53a2.32,2.32,0,0,1,2.64.41,6.81,6.81,0,0,0,6.21,1.35c1.55-.4,1.09,1.1.8,1.62-1,1.8-.34,2.21,1.42,2.4a17.58,17.58,0,0,0,3.92-.13c0.63-.07,1.43-0.62,2,0.23a2.71,2.71,0,0,1,.14,2.74c-1,2.29-1.05,2.33,1.2,3.71s4.25,2.53,5,5.15c0.52,2.09-.46,3-2.39,3.73-3.61,1.28-7.14,2.78-9.65,5.91-0.28.35-.67,0.66-1,0.23-2.5-2.78-6.2-3.59-9.15-5.61a2,2,0,0,1-.84-0.89c-0.53-1.78-1.61-1.36-2.79-.8-1.6.76-3,2-4.84,2.18-0.58.45-1.14,0-1.71-.05-0.31.37,0.07,0.66,0.12,1,0.18,1.35-.4,2.1-1.68,1.76-5.83-1.58-10.66.76-15.36,3.74-1.87,1.18-3.73,2.4-5.66,3.47s-2,1.33-1.64,3.42a1.8,1.8,0,0,1,0,1.39A5.48,5.48,0,0,0,157.17,84c-3.66,3.35-7.72,6.25-11.1,9.91-3.53,3.82-6.73,7.9-10,11.92a90.1,90.1,0,0,0-7,10.57,84.38,84.38,0,0,0-5.82,11.68c-1.22,3-2.31,6-3.48,9-1,2.5-2.24,5.31-1.31,8.27Z" transform="translate(0 -6.12)"/><path class="bi" d="M161.66,82.48a14.9,14.9,0,0,1-.58-1.87,2.61,2.61,0,0,1,1.51-3.2c3-1.59,5.85-3.51,8.8-5.21,4.07-2.35,8.35-3.56,13-2.1,1.34,0.41,1.41-.34,1.18-1.35-0.15-.68-0.92-1.11-0.77-2.06,1.06,0.09,1.71,1.15,2.76,1.1-0.54,2,.31,3.12,2.41,3.18a1.92,1.92,0,0,1,1.52.29c-3.07-.5-5.23.76-7.22,3.11-2.38,2.82-5.39,5.09-7.66,8.06-1.18,1.54-1.55,3.89-4.44,3.72C168.29,85.89,164.36,86.07,161.66,82.48Z" transform="translate(0 -6.12)"/><path class="bi" d="M196.59,76.35C196,76.2,196,76.2,196,76c0-1.17,0-2.35,0-3.52C196.65,73.69,195.73,75.15,196.59,76.35Z" transform="translate(0 -6.12)"/><path class="bj" d="M182.53,100.62c1.52,1.8.81,3.8,1.47,5.82-1.92-1.38-3.69-1-5.52-.38-1.09.37-2.84,1.22-3.23,0s1.49-1.66,2.59-2.12C179.64,103.23,181.7,102.94,182.53,100.62Z" transform="translate(0 -6.12)"/><path class="bk" d="M202.66,99.39c-0.81,1.92-.81,1.92-7.38.57,0.92-2.22,3.79-2.06,4.79-4.24C201.36,96.88,198.73,100.38,202.66,99.39Z" transform="translate(0 -6.12)"/><path class="bl" d="M134,162.69l8.92,3.9c-1.7.39-2.79,1.57-4.21,0a7.22,7.22,0,0,0-2.54-1.24A3.15,3.15,0,0,1,134,162.69Z" transform="translate(0 -6.12)"/><path class="af" d="M328.45,121.32a7.94,7.94,0,0,1,3.19,5.79,1.3,1.3,0,0,1-1.15-.9c-0.75-1.32-1.24-2.8-2.39-3.89a1.07,1.07,0,0,1-.11-1.7h0C328.25,120.79,328.17,121.18,328.45,121.32Z" transform="translate(0 -6.12)"/><path class="bg" d="M328.45,121.32a0.62,0.62,0,0,1-.46-0.69c1.56,0.18,3.17-.42,4.68.34C331.26,121,329.79,120.36,328.45,121.32Z" transform="translate(0 -6.12)"/><path class="bm" d="M201.47,54.13a4.06,4.06,0,0,0,.5,4.76,9.59,9.59,0,0,1,1.08,1.85c0.82,2,0,3-2,2.75-1.21-.13-2.51-0.52-3.45,1-0.47-1.14.35-1.81,0.54-2.6s0.42-1.45-.16-2a1.82,1.82,0,0,0-2.18-.12c-1,.47-2.28,1.52-3.08.62-0.6-.67.72-1.83,1.08-2.81,0-.11.14-0.2,0.17-0.31,0.25-.82,1.34-1.66.79-2.35s-1.91-.51-2.91-0.37a7.8,7.8,0,0,0-4.77,2.94c-1.37,1.57-2.77,3.29-5.41,2.16a26.08,26.08,0,0,1,14.91-9.48c-0.69,1.42-1.24,2.69.57,3.52C198.48,54.27,199.86,53.91,201.47,54.13Z" transform="translate(0 -6.12)"/></svg>